<svg xmlns="http://www.w3.org/2000/svg" xmlns:xlink="http://www.w3.org/1999/xlink" id="FxSymbol0-076" data-type="3" focusable="false" role="presentation" viewBox="0 0 18 18"><g><path fill="#50e6ff" d="M1.01 10.19l7.92 5.14 8.06-5.16L18 11.35l-9.07 5.84L0 11.35l1.01-1.16z"/><path fill="#fff" d="M1.61 9.53L8.93.81l7.47 8.73-7.47 4.72-7.32-4.73z" class="msportalfx-svg-c01"/><path fill="#50e6ff" d="M8.93.81v13.45L1.61 9.53 8.93.81z"/><path fill="url(#f3a3cb1a-adaf-4cae-b053-04385dc97bf4)" d="M8.93.81v13.45l7.47-4.72L8.93.81z"/><path fill="#53b1e0" d="M8.93 7.76l7.47 1.78-7.47 4.72v-6.5z"/><path fill="#9cebff" d="M8.93 14.26L1.61 9.53l7.32-1.77v6.5z"/><path fill="url(#3f2c1c6d-bee9-4b58-8f1f-32c0483bade9)" d="M8.93 17.19L18 11.35l-1.01-1.18-8.06 5.16v1.86z"/></g><defs><linearGradient id="f3a3cb1a-adaf-4cae-b053-04385dc97bf4" x1="13.25" x2="8.62" y1="13.02" y2="4.25" gradientUnits="userSpaceOnUse"><stop offset="0" stop-color="#1988d9"/><stop offset=".9" stop-color="#54aef0"/></linearGradient><linearGradient id="3f2c1c6d-bee9-4b58-8f1f-32c0483bade9" x1="11.26" x2="14.46" y1="10.47" y2="15.99" gradientUnits="userSpaceOnUse"><stop offset=".1" stop-color="#54aef0"/><stop offset=".29" stop-color="#4fabee"/><stop offset=".51" stop-color="#41a2e9"/><stop offset=".74" stop-color="#2a93e0"/><stop offset=".88" stop-color="#1988d9"/></linearGradient></defs></svg>