<svg xmlns="http://www.w3.org/2000/svg" xmlns:ev="http://www.w3.org/2001/xml-events" xmlns:xlink="http://www.w3.org/1999/xlink" width="73.625" height="70.468" class="st13" color-interpolation-filters="sRGB" viewBox="0 0 55.219 52.851" xml:space="preserve"><style type="text/css">.st1{visibility:visible}.st2,.st3{stroke:none}.st2{fill:#5b9bd5;fill-opacity:.22;filter:url(#filter_2)}.st3{fill:#7a7a7a}.st3,.st4,.st5{stroke-width:12.24}.st4{fill:#a0a1a2;stroke:none}.st5{fill:#fff;fill-opacity:.2}.st5,.st6,.st7{stroke:none}.st6{fill:#59b4d9;stroke-width:12.24}.st7{fill:#b8d432}.st7,.st8,.st9{stroke-width:12.24}.st8{fill:#fff;stroke:none}.st9{fill-opacity:.7}.st10,.st11,.st9{fill:#fff;stroke:none}.st10{fill-opacity:.4;stroke-width:12.24}.st11{stroke-linecap:round;stroke-linejoin:round;stroke-width:.75}.st12{fill:#c00000;stroke:none;stroke-width:4.02632}.st13{fill:none;fill-rule:evenodd;font-size:12px;overflow:visible;stroke-linecap:square;stroke-miterlimit:3}</style><defs id="Filters"><filter id="filter_2"><feGaussianBlur stdDeviation="2"/></filter></defs><g><title>Page-1</title><g id="group311-1" transform="translate(12.24,-12.24)"><title>Sheet.311</title><g id="group198-2"><title>Azure Portal - Virtual Machines</title><g id="shape199-3" transform="translate(5.32077,0)"><title>Sheet.199</title><g id="shadow199-4" class="st1"><path d="M14.61 46.94 L13.88 46.94 L6.63 46.94 L6.26 46.94 C7.26 50.49 5.91 50.99 0 50.99 L0 52.85 L7.52 52.85 L13 52.85 L20.1 52.85 L20.1 50.99 C14.19 50.99 13.61 50.49 14.61 46.94 Z" class="st2" transform="matrix(1,0,0,1,0.3456,1.9728)"/></g><path d="M14.61 46.94 L13.88 46.94 L6.63 46.94 L6.26 46.94 C7.26 50.49 5.91 50.99 0 50.99 L0 52.85 L7.52 52.85 L13 52.85 L20.1 52.85 L20.1 50.99 C14.19 50.99 13.61 50.49 14.61 46.94 Z" class="st3"/></g><g id="shape200-8" transform="translate(0.000614763,-5.90971)"><title>Sheet.200</title><g id="shadow200-9" class="st1"><path d="M28.88 30.39 L1.67 30.39 C0.75 30.39 0 31.22 0 32.14 L0 51.12 C0 52.03 0.75 52.85 1.67 52.85 L28.88 52.85 C29.8 52.85 30.74 52.03 30.74 51.12 L30.74 32.14 C30.74 31.21 29.8 30.39 28.88 30.39 Z" class="st2" transform="matrix(1,0,0,1,0.3456,1.9728)"/></g><path d="M28.88 30.39 L1.67 30.39 C0.75 30.39 0 31.22 0 32.14 L0 51.12 C0 52.03 0.75 52.85 1.67 52.85 L28.88 52.85 C29.8 52.85 30.74 52.03 30.74 51.12 L30.74 32.14 C30.74 31.21 29.8 30.39 28.88 30.39 Z" class="st4"/></g><g id="shape201-13" transform="translate(0,-5.9091)"><title>Sheet.201</title><g id="shadow201-14" class="st1"><path d="M28.9 30.39 C28.89 30.39 28.89 30.39 28.88 30.39 L1.67 30.39 C0.75 30.39 0 31.22 0 32.14 L0 51.11 C0 52.03 0.75 52.85 1.67 52.85 L2.32 52.85 L28.9 30.39 Z" class="st2" transform="matrix(1,0,0,1,0.3456,1.9728)"/></g><path d="M28.9 30.39 C28.89 30.39 28.89 30.39 28.88 30.39 L1.67 30.39 C0.75 30.39 0 31.22 0 32.14 L0 51.11 C0 52.03 0.75 52.85 1.67 52.85 L2.32 52.85 L28.9 30.39 Z" class="st5"/></g><g id="shape202-18" transform="translate(2.32995,-8.27471)"><title>Sheet.202</title><g id="shadow202-19" class="st1" transform="matrix(1,0,0,1,0.3456,1.9728)"><rect width="26.009" height="17.73" x="0" y="35.12" class="st2"/></g><rect width="26.009" height="17.73" x="0" y="35.12" class="st6"/></g><g id="shape203-23" transform="translate(2.32995,-8.27471)"><title>Sheet.203</title><g id="shadow203-24" class="st1"><path d="M0 52.85 L0.04 52.85 L0.04 35.12 L23.81 35.09 L23.82 35.09 L0 35.12 L0 52.85 Z" class="st2" transform="matrix(1,0,0,1,0.3456,1.9728)"/></g><path d="M0 52.85 L0.04 52.85 L0.04 35.12 L23.81 35.09 L23.82 35.09 L0 35.12 L0 52.85 Z" class="st6"/></g><g id="shape204-28" transform="translate(5.32077,-1.42109E-14)"><title>Sheet.204</title><g id="shadow204-29" class="st1" transform="matrix(1,0,0,1,0.3456,1.9728)"><rect width="20.098" height="1.857" x="0" y="50.993" class="st2"/></g><rect width="20.098" height="1.857" x="0" y="50.993" class="st4"/></g><g id="shape205-33" transform="translate(14.8152,-26.6463)"><title>Sheet.205</title><g id="shadow205-34" class="st1"><path d="M0.87 52.41 C0.87 52.66 0.68 52.85 0.44 52.85 C0.19 52.85 0 52.66 0 52.41 C0 52.17 0.19 51.98 0.44 51.98 C0.68 51.98 0.87 52.17 0.87 52.41 Z" class="st2" transform="matrix(1,0,0,1,0.3456,1.9728)"/></g><path d="M0.87 52.41 C0.87 52.66 0.68 52.85 0.44 52.85 C0.19 52.85 0 52.66 0 52.41 C0 52.17 0.19 51.98 0.44 51.98 C0.68 51.98 0.87 52.17 0.87 52.41 Z" class="st7"/></g><g id="shape206-38" transform="translate(10.1288,-17.6775)"><title>Sheet.206</title><g id="shadow206-39" class="st1"><path d="M5.58 52.85 C5.55 52.85 5.52 52.84 5.49 52.83 L0.08 49.7 C0.03 49.67 0 49.62 0 49.56 C0 49.5 0.03 49.45 0.08 49.42 L5.46 46.32 C5.51 46.29 5.57 46.29 5.62 46.32 L11.04 49.44 C11.09 49.47 11.12 49.52 11.12 49.58 C11.12 49.64 11.09 49.7 11.04 49.72 L5.66 52.83 C5.63 52.84 5.61 52.85 5.58 52.85 Z" class="st2" transform="matrix(1,0,0,1,0.3456,1.9728)"/></g><path d="M5.58 52.85 C5.55 52.85 5.52 52.84 5.49 52.83 L0.08 49.7 C0.03 49.67 0 49.62 0 49.56 C0 49.5 0.03 49.45 0.08 49.42 L5.46 46.32 C5.51 46.29 5.57 46.29 5.62 46.32 L11.04 49.44 C11.09 49.47 11.12 49.52 11.12 49.58 C11.12 49.64 11.09 49.7 11.04 49.72 L5.66 52.83 C5.63 52.84 5.61 52.85 5.58 52.85 Z" class="st8"/></g><g id="shape207-43" transform="translate(9.36468,-10.084)"><title>Sheet.207</title><g id="shadow207-44" class="st1"><path d="M5.56 52.85 C5.53 52.85 5.5 52.84 5.48 52.83 L0.08 49.71 C0.03 49.69 0 49.63 0 49.57 L0 43.32 C0 43.26 0.03 43.21 0.08 43.18 C0.13 43.15 0.19 43.15 0.25 43.18 L5.64 46.29 C5.69 46.32 5.72 46.38 5.72 46.44 L5.72 52.69 C5.72 52.75 5.69 52.8 5.64 52.83 C5.62 52.84 5.59 52.85 5.56 52.85 Z" class="st2" transform="matrix(1,0,0,1,0.3456,1.9728)"/></g><path d="M5.56 52.85 C5.53 52.85 5.5 52.84 5.48 52.83 L0.08 49.71 C0.03 49.69 0 49.63 0 49.57 L0 43.32 C0 43.26 0.03 43.21 0.08 43.18 C0.13 43.15 0.19 43.15 0.25 43.18 L5.64 46.29 C5.69 46.32 5.72 46.38 5.72 46.44 L5.72 52.69 C5.72 52.75 5.69 52.8 5.64 52.83 C5.62 52.84 5.59 52.85 5.56 52.85 Z" class="st9"/></g><g id="shape208-48" transform="translate(16.2906,-10.084)"><title>Sheet.208</title><g id="shadow208-49" class="st1"><path d="M0.16 52.85 C0.13 52.85 0.11 52.84 0.08 52.83 C0.03 52.8 0 52.75 0 52.69 L0 46.48 C0 46.42 0.03 46.36 0.08 46.33 L5.48 43.22 C5.53 43.19 5.59 43.19 5.64 43.22 C5.69 43.25 5.72 43.3 5.72 43.36 L5.72 49.57 C5.72 49.63 5.69 49.69 5.64 49.71 L0.24 52.83 C0.22 52.84 0.19 52.85 0.16 52.85 Z" class="st2" transform="matrix(1,0,0,1,0.3456,1.9728)"/></g><path d="M0.16 52.85 C0.13 52.85 0.11 52.84 0.08 52.83 C0.03 52.8 0 52.75 0 52.69 L0 46.48 C0 46.42 0.03 46.36 0.08 46.33 L5.48 43.22 C5.53 43.19 5.59 43.19 5.64 43.22 C5.69 43.25 5.72 43.3 5.72 43.36 L5.72 49.57 C5.72 49.63 5.69 49.69 5.64 49.71 L0.24 52.83 C0.22 52.84 0.19 52.85 0.16 52.85 Z" class="st10"/></g></g><g id="group310-53" transform="translate(22.3326,-3.68571)"><title>Sheet.310</title><g id="shape308-54" transform="translate(1.54737,-1.92227)"><title>Sheet.308</title><rect width="1.425" height="4.461" x="0" y="48.39" class="st11"/></g><g id="group221-56"><title>Alert</title><g id="shape222-57" transform="translate(-1.97651,-1.05077)"><title>Sheet.222</title><g id="shadow222-58" class="st1"><path d="M8.13 51.95 L6.44 49.19 L4.73 46.28 C4.45 45.82 3.93 45.82 3.66 46.26 L1.97 49.02 L0.27 51.95 C0 52.41 0.29 52.85 0.84 52.85 L4.2 52.85 L7.57 52.85 C8.13 52.83 8.41 52.39 8.13 51.95 ZM4.66 47.89 L4.54 50.34 L3.89 50.34 L3.76 47.89 L4.66 47.89 ZM4.2 51.85 C3.89 51.85 3.68 51.62 3.68 51.32 C3.68 51.01 3.89 50.8 4.2 50.8 C4.52 50.8 4.7 51.01 4.73 51.32 C4.73 51.62 4.52 51.85 4.2 51.85 Z" class="st2" transform="matrix(1,0,0,1,0.3456,1.9728)"/></g><path d="M8.13 51.95 L6.44 49.19 L4.73 46.28 C4.45 45.82 3.93 45.82 3.66 46.26 L1.97 49.02 L0.27 51.95 C0 52.41 0.29 52.85 0.84 52.85 L4.2 52.85 L7.57 52.85 C8.13 52.83 8.41 52.39 8.13 51.95 ZM4.66 47.89 L4.54 50.34 L3.89 50.34 L3.76 47.89 L4.66 47.89 ZM4.2 51.85 C3.89 51.85 3.68 51.62 3.68 51.32 C3.68 51.01 3.89 50.8 4.2 50.8 C4.52 50.8 4.7 51.01 4.73 51.32 C4.73 51.62 4.52 51.85 4.2 51.85 Z" class="st12"/></g><g id="group223-62"><title>Sheet.223</title></g></g></g></g></g></svg>