<svg xmlns="http://www.w3.org/2000/svg" xmlns:ev="http://www.w3.org/2001/xml-events" xmlns:xlink="http://www.w3.org/1999/xlink" width="85" height="92.333" class="st8" color-interpolation-filters="sRGB" viewBox="0 0 63.75 69.25" xml:space="preserve"><style type="text/css">.st1,.st2{stroke:none;stroke-width:.75}.st1{fill:#fff;stroke-linecap:round;stroke-linejoin:round}.st2{fill:#ea700d;stroke-linecap:butt}.st3{visibility:visible}.st4{fill:#5b9bd5;fill-opacity:.22;filter:url(#filter_2);stroke:none}.st5{fill:#7fba00}.st5,.st6,.st7{stroke:none;stroke-width:12.24}.st6{fill:#b8d432;fill-opacity:.4}.st7{fill:#fff}.st8{fill:none;fill-rule:evenodd;font-size:12px;overflow:visible;stroke-linecap:square;stroke-miterlimit:3}</style><defs id="Filters"><filter id="filter_2"><feGaussianBlur stdDeviation="2"/></filter></defs><g><title>Page-1</title><g id="shape228-1" transform="translate(0.375,-7.62487)"><title>Sheet.228</title><rect width="63" height="61.25" x="0" y="8" class="st1"/></g><g id="group213-3" transform="translate(20.7881,-28.5488)"><title>Firewall</title><g id="shape214-4" transform="translate(0,-14.9673)"><title>Sheet.214</title><rect width="5.543" height="4.435" x="0" y="64.815" class="st2"/></g><g id="shape215-6" transform="translate(6.15934,-14.9673)"><title>Sheet.215</title><rect width="9.855" height="4.435" x="0" y="64.815" class="st2"/></g><g id="shape216-8" transform="translate(16.6304,-14.9673)"><title>Sheet.216</title><rect width="5.543" height="4.435" x="0" y="64.815" class="st2"/></g><g id="shape217-10" transform="translate(0,-9.97823)"><title>Sheet.217</title><rect width="10.471" height="4.435" x="0" y="64.815" class="st2"/></g><g id="shape218-12" transform="translate(11.0869,-9.97823)"><title>Sheet.218</title><rect width="11.087" height="4.435" x="0" y="64.815" class="st2"/></g><g id="shape219-14" transform="translate(0,-4.98911)"><title>Sheet.219</title><rect width="5.543" height="4.435" x="0" y="64.815" class="st2"/></g><g id="shape220-16" transform="translate(6.15934,-4.98911)"><title>Sheet.220</title><rect width="9.855" height="4.435" x="0" y="64.815" class="st2"/></g><g id="shape221-18" transform="translate(16.6304,-4.98911)"><title>Sheet.221</title><rect width="5.543" height="4.435" x="0" y="64.815" class="st2"/></g><g id="shape222-20"><title>Sheet.222</title><rect width="10.471" height="4.435" x="0" y="64.815" class="st2"/></g><g id="shape223-22" transform="translate(11.0869,9.9476E-14)"><title>Sheet.223</title><rect width="11.087" height="4.435" x="0" y="64.815" class="st2"/></g></g><g id="group224-24" transform="translate(35.3329,-24.6684)"><title>Azure Security / Security Center.224</title><g id="shape225-25"><title>Sheet.225</title><g id="shadow225-26" class="st3"><path d="M11.47 53.11 C7.43 52.67 6.73 50.91 6.73 50.91 C6.73 50.91 5.81 53.18 0 53.18 L0 62.6 C0 63.74 0.62 64.8 1.51 65.72 C3.49 67.82 6.73 69.25 6.73 69.25 C6.73 69.25 13.45 66.31 13.45 62.6 L13.45 53.18 C12.72 53.18 12.06 53.15 11.47 53.11 Z" class="st4" transform="matrix(1,0,0,1,0.3456,1.9728)"/></g><path d="M11.47 53.11 C7.43 52.67 6.73 50.91 6.73 50.91 C6.73 50.91 5.81 53.18 0 53.18 L0 62.6 C0 63.74 0.62 64.8 1.51 65.72 C3.49 67.82 6.73 69.25 6.73 69.25 C6.73 69.25 13.45 66.31 13.45 62.6 L13.45 53.18 C12.72 53.18 12.06 53.15 11.47 53.11 Z" class="st5"/></g><g id="shape226-30" transform="translate(0,-3.52916)"><title>Sheet.226</title><g id="shadow226-31" class="st3"><path d="M8.42 60.5 L11.47 56.64 C7.43 56.2 6.73 54.43 6.73 54.43 C6.73 54.43 5.81 56.71 0 56.71 L0 66.13 C0 67.26 0.62 68.33 1.51 69.25 L3.79 66.38 L8.42 60.5 Z" class="st4" transform="matrix(1,0,0,1,0.3456,1.9728)"/></g><path d="M8.42 60.5 L11.47 56.64 C7.43 56.2 6.73 54.43 6.73 54.43 C6.73 54.43 5.81 56.71 0 56.71 L0 66.13 C0 67.26 0.62 68.33 1.51 69.25 L3.79 66.38 L8.42 60.5 Z" class="st6"/></g><g id="shape227-35" transform="translate(3.74973,-5.25697)"><title>Sheet.227</title><g id="shadow227-36" class="st3"><path d="M5.66 65.17 L5.26 65.17 L5.26 63.85 C5.26 63.22 5.04 62.63 4.63 62.23 C4.63 62.23 4.6 62.19 4.6 62.19 C4.19 61.75 3.6 61.49 2.98 61.49 C2.35 61.49 1.76 61.79 1.36 62.19 C0.96 62.63 0.7 63.22 0.7 63.88 L0.7 65.21 L0.29 65.21 C0.15 65.21 0 65.35 0 65.5 L0 68.15 L0 68.96 C0 69.1 0.15 69.25 0.29 69.25 L5.62 69.25 C5.77 69.25 5.92 69.1 5.92 68.96 L5.92 65.5 C5.96 65.28 5.81 65.17 5.66 65.17 ZM4.19 65.17 L2.35 65.17 L1.8 65.17 L1.8 63.85 C1.8 63.48 1.95 63.15 2.17 62.89 C2.39 62.67 2.68 62.52 3.01 62.52 C3.35 62.52 3.64 62.67 3.86 62.89 C3.9 62.96 3.97 63 4.01 63.07 C4.15 63.29 4.23 63.55 4.23 63.85 C4.19 63.85 4.19 65.17 4.19 65.17 Z" class="st4" transform="matrix(1,0,0,1,0.3456,1.9728)"/></g><path d="M5.66 65.17 L5.26 65.17 L5.26 63.85 C5.26 63.22 5.04 62.63 4.63 62.23 C4.63 62.23 4.6 62.19 4.6 62.19 C4.19 61.75 3.6 61.49 2.98 61.49 C2.35 61.49 1.76 61.79 1.36 62.19 C0.96 62.63 0.7 63.22 0.7 63.88 L0.7 65.21 L0.29 65.21 C0.15 65.21 0 65.35 0 65.5 L0 68.15 L0 68.96 C0 69.1 0.15 69.25 0.29 69.25 L5.62 69.25 C5.77 69.25 5.92 69.1 5.92 68.96 L5.92 65.5 C5.96 65.28 5.81 65.17 5.66 65.17 ZM4.19 65.17 L2.35 65.17 L1.8 65.17 L1.8 63.85 C1.8 63.48 1.95 63.15 2.17 62.89 C2.39 62.67 2.68 62.52 3.01 62.52 C3.35 62.52 3.64 62.67 3.86 62.89 C3.9 62.96 3.97 63 4.01 63.07 C4.15 63.29 4.23 63.55 4.23 63.85 C4.19 63.85 4.19 65.17 4.19 65.17 Z" class="st7"/></g></g></g></svg>