<svg xmlns="http://www.w3.org/2000/svg" xmlns:ev="http://www.w3.org/2001/xml-events" xmlns:xlink="http://www.w3.org/1999/xlink" width="82.26" height="82.26" class="st21" color-interpolation-filters="sRGB" viewBox="0 0 61.695 61.695" xml:space="preserve"><style type="text/css">.st1{fill:#fff;stroke:none;stroke-linecap:round;stroke-linejoin:round;stroke-width:.75}.st2{visibility:visible}.st3{fill:#5b9bd5;fill-opacity:.22;filter:url(#filter_2);stroke:none}.st4{fill:#59b4d9}.st4,.st5,.st6{stroke:none;stroke-width:.75}.st5{fill:#a0a1a2}.st6{fill:#fff;fill-opacity:.2}.st10,.st11{stroke:none;stroke-width:.75}.st7{fill:#b8d432}.st7,.st8,.st9{stroke:none;stroke-width:.75}.st8{fill:#fff}.st9{fill:#7a7a7a}.st10,.st11{fill:#fff;fill-opacity:.7}.st11{fill-opacity:.4}.st12{fill:#7a7a7a}.st12,.st13,.st14{stroke:none;stroke-width:12.24}.st13{fill:#a0a1a2}.st14{fill:#fff;fill-opacity:.2}.st15{fill:#59b4d9}.st15,.st16,.st17,.st18,.st19{stroke:none;stroke-width:12.24}.st16{fill:#b8d432}.st17,.st18,.st19{fill:#fff}.st18{fill-opacity:.7}.st19{fill-opacity:.4}.st20{fill:#bfbfbf;stroke:none;stroke-linecap:round;stroke-linejoin:round;stroke-width:.24}.st21{fill:none;fill-rule:evenodd;font-size:12px;overflow:visible;stroke-linecap:square;stroke-miterlimit:3}</style><defs id="Filters"><filter id="filter_2"><feGaussianBlur stdDeviation="2"/></filter></defs><g><title>Page-1</title><g id="group185-1" transform="translate(0.375,-0.375)"><title>Sheet.185</title><g id="shape119-2"><title>Sheet.119</title><rect width="60.945" height="60.945" x="0" y=".75" class="st1"/></g><g id="group184-4" transform="translate(12.7559,-19.7328)"><title>Sheet.184</title><g id="group87-5" transform="translate(21.1431,-4.9738E-14)"><title>Azure Virtual Machines - Availability Set</title><g id="shape88-6" transform="translate(6.19242,-19.3313)"><title>Sheet.88</title><g id="shadow88-7" class="st2" transform="matrix(1,0,0,1,0.3456,1.9728)"><rect width="1.905" height="2.148" x="0" y="59.547" class="st3"/></g><rect width="1.905" height="2.148" x="0" y="59.547" class="st4"/></g><g id="shape89-11" transform="translate(3.33442,-19.3313)"><title>Sheet.89</title><g id="shadow89-12" class="st2" transform="matrix(1,0,0,1,0.3456,1.9728)"><rect width="1.905" height="2.148" x="0" y="59.547" class="st3"/></g><rect width="1.905" height="2.148" x="0" y="59.547" class="st4"/></g><g id="shape90-16" transform="translate(11.9084,0)"><title>Sheet.90</title><g id="shadow90-17" class="st2"><path d="M0.95 59.55 L0 59.55 L0 61.69 L1.43 61.69 C1.96 61.69 2.38 61.05 2.38 60.26 L2.38 58.12 L0.95 58.12 L0.95 59.55 Z" class="st3" transform="matrix(1,0,0,1,0.3456,1.9728)"/></g><path d="M0.95 59.55 L0 59.55 L0 61.69 L1.43 61.69 C1.96 61.69 2.38 61.05 2.38 60.26 L2.38 58.12 L0.95 58.12 L0.95 59.55 Z" class="st4"/></g><g id="shape91-21" transform="translate(0,-5.01153)"><title>Sheet.91</title><g id="shadow91-22" class="st2" transform="matrix(1,0,0,1,0.3456,1.9728)"><rect width="1.429" height="2.864" x="0" y="58.831" class="st3"/></g><rect width="1.429" height="2.864" x="0" y="58.831" class="st4"/></g><g id="shape92-26" transform="translate(6.19242,0)"><title>Sheet.92</title><g id="shadow92-27" class="st2" transform="matrix(1,0,0,1,0.3456,1.9728)"><rect width="1.905" height="2.148" x="0" y="59.547" class="st3"/></g><rect width="1.905" height="2.148" x="0" y="59.547" class="st4"/></g><g id="shape93-31" transform="translate(12.861,-5.01153)"><title>Sheet.93</title><g id="shadow93-32" class="st2" transform="matrix(1,0,0,1,0.3456,1.9728)"><rect width="1.429" height="2.864" x="0" y="58.831" class="st3"/></g><rect width="1.429" height="2.864" x="0" y="58.831" class="st4"/></g><g id="shape94-36" transform="translate(9.05041,0)"><title>Sheet.94</title><g id="shadow94-37" class="st2" transform="matrix(1,0,0,1,0.3456,1.9728)"><rect width="1.905" height="2.148" x="0" y="59.547" class="st3"/></g><rect width="1.905" height="2.148" x="0" y="59.547" class="st4"/></g><g id="shape95-41" transform="translate(3.33442,0)"><title>Sheet.95</title><g id="shadow95-42" class="st2" transform="matrix(1,0,0,1,0.3456,1.9728)"><rect width="1.905" height="2.148" x="0" y="59.547" class="st3"/></g><rect width="1.905" height="2.148" x="0" y="59.547" class="st4"/></g><g id="shape96-46"><title>Sheet.96</title><g id="shadow96-47" class="st2"><path d="M1.43 59.55 L1.43 58.12 L0 58.12 L0 60.26 C0 61.05 0.43 61.69 0.95 61.69 L2.38 61.69 L2.38 59.55 L1.43 59.55 Z" class="st3" transform="matrix(1,0,0,1,0.3456,1.9728)"/></g><path d="M1.43 59.55 L1.43 58.12 L0 58.12 L0 60.26 C0 61.05 0.43 61.69 0.95 61.69 L2.38 61.69 L2.38 59.55 L1.43 59.55 Z" class="st4"/></g><g id="shape97-51" transform="translate(0,-13.6032)"><title>Sheet.97</title><g id="shadow97-52" class="st2" transform="matrix(1,0,0,1,0.3456,1.9728)"><rect width="1.429" height="2.864" x="0" y="58.831" class="st3"/></g><rect width="1.429" height="2.864" x="0" y="58.831" class="st4"/></g><g id="shape98-56" transform="translate(0,-17.8995)"><title>Sheet.98</title><g id="shadow98-57" class="st2"><path d="M1.43 60.26 L2.38 60.26 L2.38 58.12 L0.95 58.12 C0.43 58.12 0 58.76 0 59.55 L0 61.69 L1.43 61.69 L1.43 60.26 Z" class="st3" transform="matrix(1,0,0,1,0.3456,1.9728)"/></g><path d="M1.43 60.26 L2.38 60.26 L2.38 58.12 L0.95 58.12 C0.43 58.12 0 58.76 0 59.55 L0 61.69 L1.43 61.69 L1.43 60.26 Z" class="st4"/></g><g id="shape99-61" transform="translate(0,-9.30737)"><title>Sheet.99</title><g id="shadow99-62" class="st2" transform="matrix(1,0,0,1,0.3456,1.9728)"><rect width="1.429" height="2.864" x="0" y="58.831" class="st3"/></g><rect width="1.429" height="2.864" x="0" y="58.831" class="st4"/></g><g id="shape100-66" transform="translate(12.861,-9.30737)"><title>Sheet.100</title><g id="shadow100-67" class="st2" transform="matrix(1,0,0,1,0.3456,1.9728)"><rect width="1.429" height="2.864" x="0" y="58.831" class="st3"/></g><rect width="1.429" height="2.864" x="0" y="58.831" class="st4"/></g><g id="shape101-71" transform="translate(12.861,-13.6036)"><title>Sheet.101</title><g id="shadow101-72" class="st2" transform="matrix(1,0,0,1,0.3456,1.9728)"><rect width="1.429" height="2.864" x="0" y="58.831" class="st3"/></g><rect width="1.429" height="2.864" x="0" y="58.831" class="st4"/></g><g id="shape102-76" transform="translate(9.05013,-19.3313)"><title>Sheet.102</title><g id="shadow102-77" class="st2" transform="matrix(1,0,0,1,0.3456,1.9728)"><rect width="1.905" height="2.148" x="0" y="59.547" class="st3"/></g><rect width="1.905" height="2.148" x="0" y="59.547" class="st4"/></g><g id="shape103-81" transform="translate(11.9084,-17.8995)"><title>Sheet.103</title><g id="shadow103-82" class="st2"><path d="M0.95 60.26 L0.95 61.69 L2.38 61.69 L2.38 59.55 C2.38 58.76 1.95 58.12 1.43 58.12 L0 58.12 L0 60.26 L0.95 60.26 Z" class="st3" transform="matrix(1,0,0,1,0.3456,1.9728)"/></g><path d="M0.95 60.26 L0.95 61.69 L2.38 61.69 L2.38 59.55 C2.38 58.76 1.95 58.12 1.43 58.12 L0 58.12 L0 60.26 L0.95 60.26 Z" class="st4"/></g><g id="shape104-86" transform="translate(2.39814,-8.6428)"><title>Sheet.104</title><g id="shadow104-87" class="st2"><path d="M7.7 52.71 L0.45 52.71 C0.2 52.71 0 53.04 0 53.41 L0 61 C0 61.37 0.2 61.69 0.45 61.69 L7.7 61.69 C7.94 61.69 8.19 61.37 8.19 61 L8.19 53.41 C8.19 53.04 7.94 52.71 7.7 52.71 Z" class="st3" transform="matrix(1,0,0,1,0.3456,1.9728)"/></g><path d="M7.7 52.71 L0.45 52.71 C0.2 52.71 0 53.04 0 53.41 L0 61 C0 61.37 0.2 61.69 0.45 61.69 L7.7 61.69 C7.94 61.69 8.19 61.37 8.19 61 L8.19 53.41 C8.19 53.04 7.94 52.71 7.7 52.71 Z" class="st5"/></g><g id="shape105-91" transform="translate(2.39814,-8.64323)"><title>Sheet.105</title><g id="shadow105-92" class="st2"><path d="M7.7 52.71 C7.7 52.71 7.7 52.71 7.7 52.71 L0.45 52.71 C0.2 52.71 0 53.04 0 53.41 L0 61 C0 61.37 0.2 61.69 0.45 61.69 L0.62 61.69 L7.7 52.71 Z" class="st3" transform="matrix(1,0,0,1,0.3456,1.9728)"/></g><path d="M7.7 52.71 C7.7 52.71 7.7 52.71 7.7 52.71 L0.45 52.71 C0.2 52.71 0 53.04 0 53.41 L0 61 C0 61.37 0.2 61.69 0.45 61.69 L0.62 61.69 L7.7 52.71 Z" class="st6"/></g><g id="shape106-96" transform="translate(3.01919,-9.58917)"><title>Sheet.106</title><g id="shadow106-97" class="st2"><path d="M6.95 61.69 L0 61.69 L0 54.6 L6.95 54.58 L6.95 61.69 Z" class="st3" transform="matrix(1,0,0,1,0.3456,1.9728)"/></g><path d="M6.95 61.69 L0 61.69 L0 54.6 L6.95 54.58 L6.95 61.69 Z" class="st4"/></g><g id="shape107-101" transform="translate(6.34732,-16.9406)"><title>Sheet.107</title><g id="shadow107-102" class="st2"><path d="M0.23 61.52 C0.23 61.62 0.18 61.69 0.12 61.69 C0.05 61.69 0 61.62 0 61.52 C0 61.42 0.05 61.35 0.12 61.35 C0.18 61.35 0.23 61.42 0.23 61.52 Z" class="st3" transform="matrix(1,0,0,1,0.3456,1.9728)"/></g><path d="M0.23 61.52 C0.23 61.62 0.18 61.69 0.12 61.69 C0.05 61.69 0 61.62 0 61.52 C0 61.42 0.05 61.35 0.12 61.35 C0.18 61.35 0.23 61.42 0.23 61.52 Z" class="st7"/></g><g id="shape108-106" transform="translate(5.09809,-13.3519)"><title>Sheet.108</title><g id="shadow108-107" class="st2"><path d="M1.49 61.69 C1.48 61.69 1.47 61.69 1.46 61.69 L0.02 60.44 C0.01 60.42 0 60.4 0 60.38 C0 60.36 0.01 60.33 0.02 60.32 L1.46 59.08 C1.47 59.07 1.49 59.07 1.5 59.08 L2.94 60.33 C2.96 60.34 2.96 60.36 2.96 60.39 C2.96 60.41 2.96 60.43 2.94 60.44 L1.51 61.69 C1.5 61.69 1.49 61.69 1.49 61.69 Z" class="st3" transform="matrix(1,0,0,1,0.3456,1.9728)"/></g><path d="M1.49 61.69 C1.48 61.69 1.47 61.69 1.46 61.69 L0.02 60.44 C0.01 60.42 0 60.4 0 60.38 C0 60.36 0.01 60.33 0.02 60.32 L1.46 59.08 C1.47 59.07 1.49 59.07 1.5 59.08 L2.94 60.33 C2.96 60.34 2.96 60.36 2.96 60.39 C2.96 60.41 2.96 60.43 2.94 60.44 L1.51 61.69 C1.5 61.69 1.49 61.69 1.49 61.69 Z" class="st8"/></g><g id="shape109-111" transform="translate(5.1161,-3.84864)"><title>Sheet.109</title><g id="shadow109-112" class="st2"><path d="M3.9 59.33 L3.7 59.33 L1.77 59.33 L1.67 59.33 C1.94 60.75 1.58 60.95 0 60.95 L0 61.69 L2 61.69 L3.47 61.69 L5.36 61.69 L5.36 60.95 C3.78 60.95 3.63 60.75 3.9 59.33 Z" class="st3" transform="matrix(1,0,0,1,0.3456,1.9728)"/></g><path d="M3.9 59.33 L3.7 59.33 L1.77 59.33 L1.67 59.33 C1.94 60.75 1.58 60.95 0 60.95 L0 61.69 L2 61.69 L3.47 61.69 L5.36 61.69 L5.36 60.95 C3.78 60.95 3.63 60.75 3.9 59.33 Z" class="st9"/></g><g id="shape110-116" transform="translate(3.69825,-6.2135)"><title>Sheet.110</title><g id="shadow110-117" class="st2"><path d="M7.7 52.71 L0.45 52.71 C0.2 52.71 0 53.04 0 53.41 L0 61 C0 61.37 0.2 61.69 0.45 61.69 L7.7 61.69 C7.94 61.69 8.19 61.37 8.19 61 L8.19 53.41 C8.19 53.04 7.94 52.71 7.7 52.71 Z" class="st3" transform="matrix(1,0,0,1,0.3456,1.9728)"/></g><path d="M7.7 52.71 L0.45 52.71 C0.2 52.71 0 53.04 0 53.41 L0 61 C0 61.37 0.2 61.69 0.45 61.69 L7.7 61.69 C7.94 61.69 8.19 61.37 8.19 61 L8.19 53.41 C8.19 53.04 7.94 52.71 7.7 52.71 Z" class="st5"/></g><g id="shape111-121" transform="translate(3.69796,-6.21393)"><title>Sheet.111</title><g id="shadow111-122" class="st2"><path d="M7.7 52.71 C7.7 52.71 7.7 52.71 7.7 52.71 L0.45 52.71 C0.2 52.71 0 53.04 0 53.41 L0 61 C0 61.37 0.2 61.69 0.45 61.69 L0.62 61.69 L7.7 52.71 Z" class="st3" transform="matrix(1,0,0,1,0.3456,1.9728)"/></g><path d="M7.7 52.71 C7.7 52.71 7.7 52.71 7.7 52.71 L0.45 52.71 C0.2 52.71 0 53.04 0 53.41 L0 61 C0 61.37 0.2 61.69 0.45 61.69 L0.62 61.69 L7.7 52.71 Z" class="st6"/></g><g id="shape112-126" transform="translate(4.319,-7.15988)"><title>Sheet.112</title><g id="shadow112-127" class="st2"><path d="M6.95 61.69 L0 61.69 L0 54.6 L6.95 54.58 L6.95 61.69 Z" class="st3" transform="matrix(1,0,0,1,0.3456,1.9728)"/></g><path d="M6.95 61.69 L0 61.69 L0 54.6 L6.95 54.58 L6.95 61.69 Z" class="st4"/></g><g id="shape113-131" transform="translate(5.1161,-3.84864)"><title>Sheet.113</title><g id="shadow113-132" class="st2" transform="matrix(1,0,0,1,0.3456,1.9728)"><rect width="5.357" height=".743" x="0" y="60.952" class="st3"/></g><rect width="5.357" height=".743" x="0" y="60.952" class="st5"/></g><g id="shape114-136" transform="translate(7.64742,-14.5113)"><title>Sheet.114</title><g id="shadow114-137" class="st2"><path d="M0.23 61.52 C0.23 61.62 0.18 61.69 0.12 61.69 C0.05 61.69 0 61.62 0 61.52 C0 61.42 0.05 61.35 0.12 61.35 C0.18 61.35 0.23 61.42 0.23 61.52 Z" class="st3" transform="matrix(1,0,0,1,0.3456,1.9728)"/></g><path d="M0.23 61.52 C0.23 61.62 0.18 61.69 0.12 61.69 C0.05 61.69 0 61.62 0 61.52 C0 61.42 0.05 61.35 0.12 61.35 C0.18 61.35 0.23 61.42 0.23 61.52 Z" class="st7"/></g><g id="shape115-141" transform="translate(6.39791,-10.9222)"><title>Sheet.115</title><g id="shadow115-142" class="st2"><path d="M1.49 61.69 C1.48 61.69 1.47 61.69 1.46 61.69 L0.02 60.44 C0.01 60.42 0 60.4 0 60.38 C0 60.36 0.01 60.33 0.02 60.32 L1.46 59.08 C1.47 59.07 1.49 59.07 1.5 59.08 L2.94 60.33 C2.96 60.34 2.96 60.36 2.96 60.39 C2.96 60.41 2.96 60.43 2.94 60.44 L1.51 61.69 C1.5 61.69 1.49 61.69 1.49 61.69 Z" class="st3" transform="matrix(1,0,0,1,0.3456,1.9728)"/></g><path d="M1.49 61.69 C1.48 61.69 1.47 61.69 1.46 61.69 L0.02 60.44 C0.01 60.42 0 60.4 0 60.38 C0 60.36 0.01 60.33 0.02 60.32 L1.46 59.08 C1.47 59.07 1.49 59.07 1.5 59.08 L2.94 60.33 C2.96 60.34 2.96 60.36 2.96 60.39 C2.96 60.41 2.96 60.43 2.94 60.44 L1.51 61.69 C1.5 61.69 1.49 61.69 1.49 61.69 Z" class="st8"/></g><g id="shape116-146" transform="translate(6.19413,-7.88372)"><title>Sheet.116</title><g id="shadow116-147" class="st2"><path d="M1.48 61.69 C1.47 61.69 1.47 61.69 1.46 61.69 L0.02 60.44 C0.01 60.43 0 60.41 0 60.38 L0 57.88 C0 57.86 0.01 57.84 0.02 57.83 C0.04 57.81 0.05 57.81 0.07 57.83 L1.5 59.07 C1.52 59.08 1.53 59.1 1.53 59.13 L1.53 61.63 C1.53 61.65 1.52 61.67 1.5 61.69 C1.5 61.69 1.49 61.69 1.48 61.69 Z" class="st3" transform="matrix(1,0,0,1,0.3456,1.9728)"/></g><path d="M1.48 61.69 C1.47 61.69 1.47 61.69 1.46 61.69 L0.02 60.44 C0.01 60.43 0 60.41 0 60.38 L0 57.88 C0 57.86 0.01 57.84 0.02 57.83 C0.04 57.81 0.05 57.81 0.07 57.83 L1.5 59.07 C1.52 59.08 1.53 59.1 1.53 59.13 L1.53 61.63 C1.53 61.65 1.52 61.67 1.5 61.69 C1.5 61.69 1.49 61.69 1.48 61.69 Z" class="st10"/></g><g id="shape117-151" transform="translate(8.04068,-7.88372)"><title>Sheet.117</title><g id="shadow117-152" class="st2"><path d="M0.04 61.69 C0.04 61.69 0.03 61.69 0.02 61.69 C0.01 61.67 0 61.65 0 61.63 L0 59.14 C0 59.12 0.01 59.1 0.02 59.09 L1.46 57.84 C1.47 57.83 1.49 57.83 1.5 57.84 C1.52 57.85 1.53 57.88 1.53 57.9 L1.53 60.38 C1.53 60.41 1.52 60.43 1.5 60.44 L0.07 61.69 C0.06 61.69 0.05 61.69 0.04 61.69 Z" class="st3" transform="matrix(1,0,0,1,0.3456,1.9728)"/></g><path d="M0.04 61.69 C0.04 61.69 0.03 61.69 0.02 61.69 C0.01 61.67 0 61.65 0 61.63 L0 59.14 C0 59.12 0.01 59.1 0.02 59.09 L1.46 57.84 C1.47 57.83 1.49 57.83 1.5 57.84 C1.52 57.85 1.53 57.88 1.53 57.9 L1.53 60.38 C1.53 60.41 1.52 60.43 1.5 60.44 L0.07 61.69 C0.06 61.69 0.05 61.69 0.04 61.69 Z" class="st11"/></g></g><g id="group172-156" transform="translate(-5.9952E-15,-3.75944)"><title>Azure Portal - Virtual Machines</title><g id="shape173-157" transform="translate(1.74186,0)"><title>Sheet.173</title><g id="shadow173-158" class="st2"><path d="M4.78 58.79 L4.54 58.79 L2.17 58.79 L2.05 58.79 C2.38 60.53 1.93 60.78 0 60.78 L0 61.69 L2.46 61.69 L4.26 61.69 L6.58 61.69 L6.58 60.78 C4.64 60.78 4.45 60.53 4.78 58.79 Z" class="st3" transform="matrix(1,0,0,1,0.3456,1.9728)"/></g><path d="M4.78 58.79 L4.54 58.79 L2.17 58.79 L2.05 58.79 C2.38 60.53 1.93 60.78 0 60.78 L0 61.69 L2.46 61.69 L4.26 61.69 L6.58 61.69 L6.58 60.78 C4.64 60.78 4.45 60.53 4.78 58.79 Z" class="st12"/></g><g id="shape174-162" transform="translate(0.000201255,-2.90798)"><title>Sheet.174</title><g id="shadow174-163" class="st2"><path d="M9.45 50.64 L0.55 50.64 C0.24 50.64 0 51.05 0 51.5 L0 60.84 C0 61.29 0.24 61.69 0.55 61.69 L9.45 61.69 C9.76 61.69 10.06 61.29 10.06 60.84 L10.06 51.5 C10.06 51.05 9.76 50.64 9.45 50.64 Z" class="st3" transform="matrix(1,0,0,1,0.3456,1.9728)"/></g><path d="M9.45 50.64 L0.55 50.64 C0.24 50.64 0 51.05 0 51.5 L0 60.84 C0 61.29 0.24 61.69 0.55 61.69 L9.45 61.69 C9.76 61.69 10.06 61.29 10.06 60.84 L10.06 51.5 C10.06 51.05 9.76 50.64 9.45 50.64 Z" class="st13"/></g><g id="shape175-167" transform="translate(0,-2.90768)"><title>Sheet.175</title><g id="shadow175-168" class="st2"><path d="M9.46 50.64 C9.46 50.64 9.46 50.64 9.45 50.64 L0.55 50.64 C0.24 50.64 0 51.05 0 51.5 L0 60.84 C0 61.29 0.24 61.69 0.55 61.69 L0.76 61.69 L9.46 50.64 Z" class="st3" transform="matrix(1,0,0,1,0.3456,1.9728)"/></g><path d="M9.46 50.64 C9.46 50.64 9.46 50.64 9.45 50.64 L0.55 50.64 C0.24 50.64 0 51.05 0 51.5 L0 60.84 C0 61.29 0.24 61.69 0.55 61.69 L0.76 61.69 L9.46 50.64 Z" class="st14"/></g><g id="shape176-172" transform="translate(0.762756,-4.07172)"><title>Sheet.176</title><g id="shadow176-173" class="st2" transform="matrix(1,0,0,1,0.3456,1.9728)"><rect width="8.515" height="8.725" x="0" y="52.97" class="st3"/></g><rect width="8.515" height="8.725" x="0" y="52.97" class="st15"/></g><g id="shape177-177" transform="translate(0.762756,-4.07172)"><title>Sheet.177</title><g id="shadow177-178" class="st2"><path d="M0 61.69 L0.01 61.69 L0.01 52.97 L7.8 52.95 L7.8 52.95 L0 52.97 L0 61.69 Z" class="st3" transform="matrix(1,0,0,1,0.3456,1.9728)"/></g><path d="M0 61.69 L0.01 61.69 L0.01 52.97 L7.8 52.95 L7.8 52.95 L0 52.97 L0 61.69 Z" class="st15"/></g><g id="shape178-182" transform="translate(1.74186,-7.10543E-15)"><title>Sheet.178</title><g id="shadow178-183" class="st2" transform="matrix(1,0,0,1,0.3456,1.9728)"><rect width="6.579" height=".914" x="0" y="60.781" class="st3"/></g><rect width="6.579" height=".914" x="0" y="60.781" class="st13"/></g><g id="shape179-187" transform="translate(4.85004,-13.1118)"><title>Sheet.179</title><g id="shadow179-188" class="st2"><path d="M0.29 61.48 C0.29 61.6 0.22 61.69 0.14 61.69 C0.06 61.69 0 61.6 0 61.48 C0 61.36 0.06 61.27 0.14 61.27 C0.22 61.27 0.29 61.36 0.29 61.48 Z" class="st3" transform="matrix(1,0,0,1,0.3456,1.9728)"/></g><path d="M0.29 61.48 C0.29 61.6 0.22 61.69 0.14 61.69 C0.06 61.69 0 61.6 0 61.48 C0 61.36 0.06 61.27 0.14 61.27 C0.22 61.27 0.29 61.36 0.29 61.48 Z" class="st16"/></g><g id="shape180-192" transform="translate(3.31588,-8.69854)"><title>Sheet.180</title><g id="shadow180-193" class="st2"><path d="M1.83 61.69 C1.82 61.69 1.81 61.69 1.8 61.68 L0.03 60.15 C0.01 60.13 0 60.1 0 60.08 C0 60.05 0.01 60.02 0.03 60.01 L1.79 58.48 C1.8 58.47 1.82 58.47 1.84 58.48 L3.61 60.02 C3.63 60.03 3.64 60.06 3.64 60.09 C3.64 60.12 3.63 60.14 3.61 60.16 L1.85 61.68 C1.84 61.69 1.84 61.69 1.83 61.69 Z" class="st3" transform="matrix(1,0,0,1,0.3456,1.9728)"/></g><path d="M1.83 61.69 C1.82 61.69 1.81 61.69 1.8 61.68 L0.03 60.15 C0.01 60.13 0 60.1 0 60.08 C0 60.05 0.01 60.02 0.03 60.01 L1.79 58.48 C1.8 58.47 1.82 58.47 1.84 58.48 L3.61 60.02 C3.63 60.03 3.64 60.06 3.64 60.09 C3.64 60.12 3.63 60.14 3.61 60.16 L1.85 61.68 C1.84 61.69 1.84 61.69 1.83 61.69 Z" class="st17"/></g><g id="shape181-197" transform="translate(3.06572,-4.96199)"><title>Sheet.181</title><g id="shadow181-198" class="st2"><path d="M1.82 61.69 C1.81 61.69 1.8 61.69 1.79 61.68 L0.03 60.15 C0.01 60.14 0 60.11 0 60.08 L0 57.01 C0 56.98 0.01 56.95 0.03 56.94 C0.04 56.92 0.06 56.92 0.08 56.94 L1.85 58.47 C1.86 58.48 1.87 58.51 1.87 58.54 L1.87 61.61 C1.87 61.64 1.86 61.67 1.85 61.68 C1.84 61.69 1.83 61.69 1.82 61.69 Z" class="st3" transform="matrix(1,0,0,1,0.3456,1.9728)"/></g><path d="M1.82 61.69 C1.81 61.69 1.8 61.69 1.79 61.68 L0.03 60.15 C0.01 60.14 0 60.11 0 60.08 L0 57.01 C0 56.98 0.01 56.95 0.03 56.94 C0.04 56.92 0.06 56.92 0.08 56.94 L1.85 58.47 C1.86 58.48 1.87 58.51 1.87 58.54 L1.87 61.61 C1.87 61.64 1.86 61.67 1.85 61.68 C1.84 61.69 1.83 61.69 1.82 61.69 Z" class="st18"/></g><g id="shape182-202" transform="translate(5.33305,-4.96199)"><title>Sheet.182</title><g id="shadow182-203" class="st2"><path d="M0.05 61.69 C0.04 61.69 0.04 61.69 0.03 61.68 C0.01 61.67 0 61.64 0 61.61 L0 58.56 C0 58.53 0.01 58.5 0.03 58.49 L1.79 56.96 C1.81 56.94 1.83 56.94 1.85 56.96 C1.86 56.97 1.87 57 1.87 57.03 L1.87 60.08 C1.87 60.11 1.86 60.14 1.85 60.15 L0.08 61.68 C0.07 61.69 0.06 61.69 0.05 61.69 Z" class="st3" transform="matrix(1,0,0,1,0.3456,1.9728)"/></g><path d="M0.05 61.69 C0.04 61.69 0.04 61.69 0.03 61.68 C0.01 61.67 0 61.64 0 61.61 L0 58.56 C0 58.53 0.01 58.5 0.03 58.49 L1.79 56.96 C1.81 56.94 1.83 56.94 1.85 56.96 C1.86 56.97 1.87 57 1.87 57.03 L1.87 60.08 C1.87 60.11 1.86 60.14 1.85 60.15 L0.08 61.68 C0.07 61.69 0.06 61.69 0.05 61.69 Z" class="st19"/></g></g><g id="shape183-207" transform="translate(23.7242,112.56) rotate(175.477)"><title>Simple Arrow</title><path d="M0 61.69 L4.35 56.74 L4.35 59.21 L7.19 59.21 L7.19 61.69 L7.19 64.17 L4.35 64.17 L4.35 66.65 L0 61.69 Z" class="st20"/></g></g></g></g></svg>