<svg xmlns="http://www.w3.org/2000/svg" xmlns:ev="http://www.w3.org/2001/xml-events" xmlns:xlink="http://www.w3.org/1999/xlink" width="43.271" height="44.321" class="st4" color-interpolation-filters="sRGB" viewBox="0 0 32.453 33.24" xml:space="preserve"><style type="text/css">.st1,.st2,.st3{stroke-linecap:butt}.st1{fill:#3999c6;stroke:#0070c0;stroke-width:.5}.st2,.st3{stroke:none;stroke-width:12.2892}.st2{fill:#b92025;fill-opacity:.3}.st3{fill:#0070c0}.st4{fill:none;fill-rule:evenodd;font-size:12px;overflow:visible;stroke-linecap:square;stroke-miterlimit:3}</style><g><title>Page-1</title><g id="shape414-1" transform="translate(11.1079,-11.1079)"><title>Sheet.414</title><path d="M0.39 22.22 a0.393736 0.393736 -180 0 0 -0.393736 0.393736 L0 32.85 a0.393736 0.393736 -180 0 0 0.393736 0.393736 L9.84 33.24 a0.393736 0.393736 -180 0 0 0.393736 -0.393736 L10.24 22.61 a0.393736 0.393736 -180 0 0 -0.393736 -0.393736 L0.39 22.22 Z" class="st1"/></g><g id="shape415-3" transform="translate(16.9943,-24.495)"><title>Sheet.415</title></g><g id="shape416-4" transform="translate(20.1442,-22.92)"><title>Sheet.416</title></g><g id="shape418-5" transform="translate(16.9943,-24.495)"><title>Sheet.418</title></g><g id="shape419-6" transform="translate(12.2892,-12.2892)"><title>Sheet.419</title><path d="M7.09 24.58 L0 24.58 L0 33.24 L7.87 33.24 L7.87 24.58 L7.09 24.58 ZM2.36 32.45 L0.79 32.45 L0.79 25.37 L2.36 25.37 L2.36 32.45 ZM4.72 32.45 L3.15 32.45 L3.15 25.37 L4.72 25.37 L4.72 32.45 ZM7.09 32.45 L5.51 32.45 L5.51 25.37 L7.09 25.37 L7.09 32.45 Z" class="st2"/></g><g id="shape420-8" transform="translate(12.2892,-12.2892)"><title>Sheet.420</title><path d="M7.09 24.58 L0 24.58 L0 33.24 L7.87 33.24 L7.87 24.58 L7.09 24.58 ZM2.36 32.45 L0.79 32.45 L0.79 25.37 L2.36 25.37 L2.36 32.45 ZM4.72 32.45 L3.15 32.45 L3.15 25.37 L4.72 25.37 L4.72 32.45 ZM7.09 32.45 L5.51 32.45 L5.51 25.37 L7.09 25.37 L7.09 32.45 Z" class="st3"/></g></g></svg>