<svg xmlns="http://www.w3.org/2000/svg" xmlns:ev="http://www.w3.org/2001/xml-events" xmlns:xlink="http://www.w3.org/1999/xlink" width="82.26" height="82.26" class="st38" color-interpolation-filters="sRGB" viewBox="0 0 61.695 61.695" xml:space="preserve"><style type="text/css">.st1{fill:#fed6b6}.st1,.st10,.st2,.st3,.st4,.st5,.st6,.st7,.st8,.st9{stroke:none;stroke-linecap:butt;stroke-width:.75}.st2{fill:#d8d8d8}.st3{fill:#8ea2aa}.st4{fill:#afbec3}.st5{fill:#432817}.st6{fill:#3e3d41}.st7{fill:#fcc296}.st8{fill:#363638}.st9{fill:#e1c1ab}.st10{fill:#a73b28}.st11{fill:#414142}.st11,.st12,.st13,.st14,.st15,.st16,.st17,.st18{stroke:none;stroke-linecap:butt;stroke-width:.75}.st19{stroke:none;stroke-linecap:butt}.st12{fill:#fff}.st13{fill:#ffd75e}.st14{fill:#ffc747}.st15{fill:#d48d2e}.st16{fill:#b57c33}.st17{fill:#946633}.st18{fill:#3f6c90}.st19{fill:#9da1a8;stroke-width:.750003}.st20{fill:#b4b8bd}.st20,.st21,.st22,.st23,.st24,.st25,.st26,.st27{stroke:none;stroke-linecap:butt;stroke-width:.75}.st21{fill:#c0c7d1}.st22{fill:#9da1a8}.st23{fill:#b37e6d}.st24{fill:#b69d86}.st25{fill:#2c1f1c}.st26{fill:#335072}.st27{fill:#2c2b2c}.st28{fill:#4a7190;stroke:none;stroke-linecap:butt}.st28,.st29,.st30,.st31,.st32{stroke-width:.75}.st29,.st30,.st31,.st32,.st33,.st34,.st35{stroke:none;stroke-linecap:butt}.st36{stroke:none}.st29{fill:#4d81a7}.st30{fill:#8dd8f8}.st31{fill:#a5def6}.st32{fill:#6d6f71}.st33{fill:#d2d4d9;stroke-width:.749969}.st34{fill:#d1d3d4}.st34,.st35,.st36{stroke-width:.75}.st35{fill:#e6e7e8}.st36{fill:none;stroke-linecap:round;stroke-linejoin:round}.st37{fill:#a5a5a5;font-family:Calibri;font-size:.666664em}.st38{fill:none;fill-rule:evenodd;font-size:12px;overflow:visible;stroke-linecap:square;stroke-miterlimit:3}</style><g><title>Page-1</title><g id="group137-1" transform="translate(25.875,-19.125)"><title>Worker #4</title><g id="shape138-2" transform="translate(6.90089,-8.20039)"><title>XMLID_794_</title><path d="M2.04 56.03 C2.04 56.03 3.22 57.69 3.13 58.1 C3.03 58.51 1.32 60.25 1.32 60.25 C1.32 60.25 1.3 60.73 1.41 60.92 C1.55 60.64 1.69 61.02 1.69 61.04 C1.69 61.13 1.58 61.52 1.5 61.58 C1.43 61.65 0.64 61.69 0.64 61.69 C0.64 61.69 0 60.62 0.02 60.5 C0.04 60.38 1.96 57.95 1.96 57.95 L1.31 57.02 L2.04 56.03 Z" class="st1"/></g><g id="shape139-4" transform="translate(-5.02098E-14,-8.20039)"><title>XMLID_793_</title><path d="M1.18 56.03 C1.18 56.03 0 57.69 0.1 58.1 C0.2 58.51 1.91 60.25 1.91 60.25 C1.91 60.25 1.93 60.73 1.82 60.92 C1.68 60.64 1.53 61.02 1.53 61.04 C1.53 61.13 1.64 61.52 1.72 61.58 C1.8 61.65 2.59 61.69 2.59 61.69 C2.59 61.69 3.22 60.62 3.2 60.5 C3.18 60.38 1.26 57.95 1.26 57.95 L1.91 57.02 L1.18 56.03 Z" class="st1"/></g><g id="shape140-6" transform="translate(0.886861,-9.155)"><title>XMLID_792_</title><path d="M3.63 54.74 C3.16 55.09 2.4 55.01 2.16 55.12 C1.92 55.24 0.22 56.51 0 56.66 C0.02 57.11 0.54 57.83 1.28 58.4 C1.59 58.29 2.19 57.73 2.19 57.73 C2.19 58.15 2 61.1 2.33 61.35 C2.43 61.43 2.77 61.56 3.9 61.63 C5.04 61.69 6.41 61.51 6.57 61.16 C6.73 60.82 6.62 57.8 6.76 57.85 C6.89 57.9 7.34 58.35 7.5 58.22 C7.66 58.08 8.66 57.29 8.6 57.22 C8.53 57.15 7.01 55.19 6.75 55.1 C6.48 55.01 5.4 55.06 5.24 54.84 C5.24 54.84 5.31 55.15 5.17 55.36 C5.03 55.56 4.22 55.68 3.81 55.48 C3.42 55.31 3.63 54.74 3.63 54.74 Z" class="st2"/></g><g id="shape141-8" transform="translate(4.20643,-14.9812)"><title>XMLID_791_</title><path d="M1.07 61.69 C1.66 61.69 2.14 61.39 2.14 61.01 C2.14 60.64 1.66 60.33 1.07 60.33 C0.48 60.33 0 60.64 0 61.01 C0 61.39 0.48 61.69 1.07 61.69 Z" class="st3"/></g><g id="shape142-10" transform="translate(2.1648,-9.35823)"><title>XMLID_790_</title><path d="M0.16 58.37 C0.14 58.46 0.09 58.54 0 58.61 C0.31 58.5 0.91 57.94 0.91 57.94 C0.91 58.36 0.72 61.31 1.05 61.56 C1.1 61.6 1.2 61.65 1.41 61.69 C1.27 61.5 1.11 61.32 1.1 61.3 C1.08 61.28 1.1 61.29 1.19 61.33 C1.29 61.38 1.59 61.46 1.59 61.46 C1.59 61.46 0.98 60.96 0.96 60.51 C0.93 60.05 1.09 57.19 1.09 57.19 C1.09 57.19 0.96 57.55 0.65 57.95 C0.53 58.11 0.35 58.25 0.16 58.37 Z" class="st4"/></g><g id="shape143-12" transform="translate(7.45518,-9.43214)"><title>XMLID_789_</title><path d="M0.16 60.84 C0.18 60.86 0.97 61.38 0.97 61.38 C0.97 61.38 0.8 61.69 0.78 61.69 C0.76 61.69 0 61.18 0 61.18 L0.16 60.84 Z" class="st5"/></g><g id="shape144-14" transform="translate(7.20575,-9.80167)"><title>XMLID_788_</title><path d="M0.39 61 C0.49 61.04 0.54 61.15 0.51 61.26 L0.41 61.54 C0.37 61.64 0.26 61.69 0.15 61.66 C0.05 61.63 0 61.51 0.03 61.41 L0.14 61.12 C0.17 61.01 0.28 60.96 0.39 61 Z" class="st6"/></g><g id="shape145-16" transform="translate(5.96784,-9.2289)"><title>XMLID_787_</title><path d="M0 61.69 C1.46 61.5 1.36 61.42 1.56 61.18 C1.7 60.23 1.56 57.88 1.68 57.93 C1.82 57.99 2.27 58.44 2.42 58.3 C2.44 58.29 2.47 58.26 2.51 58.23 C2.36 58.16 2.2 58.06 2.07 57.95 C1.79 57.69 1.34 56.9 1.27 56.81 C1.2 56.72 1.49 57.81 1.49 57.81 C1.49 57.81 1.47 60.94 0.99 61.3 C0.52 61.67 0.34 61.64 0 61.69 Z" class="st4"/></g><g id="shape146-18" transform="translate(4.22183,-15.1198)"><title>XMLID_786_</title><path d="M0.42 59.66 C0.42 59.84 0.4 60.62 0.26 60.72 C0.26 60.72 0 61.31 0.4 61.5 C0.81 61.69 1.72 61.56 1.86 61.36 C2 61.15 1.93 60.85 1.93 60.85 C1.77 60.62 1.72 59.71 1.72 59.71 L0.42 59.66 Z" class="st7"/></g><g id="shape147-20" transform="translate(6.94708,-18.35)"><title>XMLID_785_</title><path d="M0.55 59.9 C0.27 59.9 0.04 60.3 0.02 60.8 C0 61.29 0.21 61.69 0.48 61.69 C0.75 61.69 0.99 61.29 1.01 60.8 C1.03 60.31 0.82 59.9 0.55 59.9 Z" class="st1"/></g><g id="shape148-22" transform="translate(2.54973,-18.35)"><title>XMLID_784_</title><path d="M0.48 59.9 C0.75 59.9 0.99 60.3 1.01 60.8 C1.03 61.29 0.82 61.69 0.55 61.69 C0.28 61.69 0.04 61.29 0.02 60.8 C0 60.31 0.21 59.9 0.48 59.9 Z" class="st1"/></g><g id="shape149-24" transform="translate(3.12557,-15.7695)"><title>XMLID_783_</title><path d="M2.14 54.65 C3.44 54.65 4.42 56.03 4.42 57.88 C4.42 59.73 3.42 61.69 2.12 61.69 C0.82 61.69 0 59.85 0 58 C0 56.15 0.84 54.65 2.14 54.65 Z" class="st1"/></g><g id="shape150-26" transform="translate(3.06706,-15.5632)"><title>XMLID_780_</title><path d="M4.46 58.5 C4.29 59.15 3.7 60.12 3.7 60.12 C3.51 59.71 3.09 59.51 3.09 59.51 L3.22 59.46 C2.8 59.15 2.36 59.39 2.26 59.45 C2.17 59.39 1.72 59.15 1.3 59.46 L1.44 59.51 C1.44 59.51 1.01 59.71 0.82 60.12 C0.82 60.12 0.24 59.15 0.07 58.5 C0.07 58.5 0 59.36 0.19 60.29 C0.38 61.2 2.26 61.69 2.26 61.69 C2.27 61.69 4.15 61.2 4.34 60.29 C4.53 59.36 4.46 58.5 4.46 58.5 ZM3.27 60.28 C3.26 60.31 2.83 60.67 2.58 60.68 C2.32 60.7 2.37 60.33 2.37 60.33 L2.26 60.33 L2.15 60.33 C2.15 60.33 2.2 60.7 1.94 60.68 C1.69 60.67 1.26 60.31 1.25 60.28 C1.23 60.26 1.35 59.84 1.75 59.63 C1.75 59.63 1.92 59.84 2.26 59.84 C2.6 59.84 2.76 59.63 2.76 59.63 C3.17 59.84 3.29 60.26 3.27 60.28 Z" class="st8"/></g><g id="shape151-28" transform="translate(2.80224,-19.5356)"><title>XMLID_779_</title><path d="M0.82 60.12 C0.83 60.13 0.31 60.94 0.26 61.69 C0.26 61.69 0 60.52 0.06 60 L0.82 60.12 Z" class="st8"/></g><g id="shape152-30" transform="translate(6.80543,-19.4432)"><title>XMLID_778_</title><path d="M0 60.04 C0 60.04 0.6 60.88 0.59 61.69 C0.59 61.69 0.86 60.46 0.79 59.91 L0 60.04 Z" class="st8"/></g><g id="shape153-32" transform="translate(2.18944,-20.4132)"><title>XMLID_772_</title><path d="M0 60.23 C0 60.23 0 60.22 0 60.22 C0 60.22 0 60.23 0 60.23 ZM0.62 60.36 C0.66 60.36 0.7 60.35 0.74 60.35 C0.7 60.36 0.66 60.36 0.62 60.36 ZM0.62 60.36 C0.62 60.36 0.61 60.36 0.62 60.36 C0.61 60.36 0.62 60.36 0.62 60.36 ZM3.11 61.69 C3.92 61.69 4.61 61.54 4.87 61.47 C4.62 61.54 3.92 61.69 3.11 61.69 ZM3.11 61.69 C3.11 61.69 3.11 61.69 3.11 61.69 C3.11 61.69 3.11 61.69 3.11 61.69 Z" class="st9"/></g><g id="shape154-34" transform="translate(7.0641,-20.6349)"><title>XMLID_769_</title><path d="M0.11 61.67 C0.11 61.67 0.11 61.67 0.11 61.67 ZM0 61.69 C0.07 61.68 0.11 61.66 0.11 61.66 C0.11 61.67 0.07 61.68 0 61.69 Z" class="st10"/></g><g id="shape155-36" transform="translate(3.55052,-19.6926)"><title>XMLID_768_</title><path d="M1.19 61.69 C1.19 61.69 1.12 61.66 1.01 61.63 C0.95 61.62 0.89 61.61 0.82 61.59 C0.75 61.58 0.68 61.57 0.6 61.58 C0.57 61.58 0.53 61.59 0.5 61.6 C0.46 61.61 0.42 61.61 0.38 61.62 C0.32 61.63 0.26 61.64 0.2 61.64 C0.15 61.65 0.1 61.65 0.06 61.65 C0.03 61.65 0.01 61.65 0.01 61.65 L0 61.63 C0 61.63 0.06 61.57 0.17 61.51 C0.22 61.48 0.29 61.46 0.37 61.44 C0.41 61.44 0.44 61.44 0.48 61.44 C0.52 61.44 0.56 61.44 0.61 61.44 C0.69 61.45 0.77 61.47 0.84 61.49 C0.91 61.52 0.98 61.54 1.03 61.57 C1.13 61.63 1.2 61.67 1.2 61.67 L1.19 61.69 Z" class="st8"/></g><g id="shape156-38" transform="translate(5.79539,-19.6926)"><title>XMLID_767_</title><path d="M0.01 61.69 C0.01 61.69 0.08 61.66 0.19 61.63 C0.25 61.62 0.31 61.61 0.38 61.59 C0.45 61.58 0.52 61.57 0.59 61.58 C0.63 61.58 0.67 61.59 0.7 61.6 C0.74 61.61 0.78 61.61 0.81 61.62 C0.88 61.63 0.94 61.64 0.99 61.64 C1.05 61.65 1.1 61.65 1.14 61.65 C1.17 61.65 1.19 61.65 1.19 61.65 L1.2 61.63 C1.2 61.63 1.14 61.57 1.03 61.51 C0.98 61.48 0.91 61.46 0.83 61.44 C0.79 61.44 0.75 61.44 0.71 61.44 C0.67 61.44 0.63 61.44 0.59 61.44 C0.51 61.45 0.43 61.47 0.36 61.49 C0.29 61.52 0.22 61.54 0.17 61.57 C0.06 61.63 0 61.67 0 61.67 L0.01 61.69 Z" class="st8"/></g><g id="shape157-40" transform="translate(6.0479,-19.0429)"><title>XMLID_766_</title><path d="M0.27 61.69 C0.42 61.69 0.54 61.57 0.54 61.43 C0.54 61.28 0.41 61.16 0.27 61.16 C0.12 61.16 0 61.28 0 61.43 C0 61.57 0.12 61.69 0.27 61.69 Z" class="st11"/></g><g id="shape158-42" transform="translate(6.30041,-19.2615)"><title>XMLID_765_</title><path d="M0.25 61.57 C0.25 61.5 0.19 61.45 0.12 61.45 C0.06 61.45 0 61.5 0 61.57 C0 61.64 0.06 61.69 0.12 61.69 C0.19 61.69 0.25 61.64 0.25 61.57 Z" class="st12"/></g><g id="shape159-44" transform="translate(3.85538,-19.0429)"><title>XMLID_764_</title><path d="M0.27 61.69 C0.42 61.69 0.54 61.57 0.54 61.43 C0.54 61.28 0.41 61.16 0.27 61.16 C0.12 61.16 0 61.28 0 61.43 C0 61.57 0.12 61.69 0.27 61.69 Z" class="st11"/></g><g id="shape160-46" transform="translate(4.10789,-19.2615)"><title>XMLID_763_</title><path d="M0.25 61.57 C0.25 61.5 0.19 61.45 0.12 61.45 C0.06 61.45 0 61.5 0 61.57 C0 61.64 0.06 61.69 0.12 61.69 C0.19 61.69 0.25 61.64 0.25 61.57 Z" class="st12"/></g><g id="shape161-48" transform="translate(4.83155,-18.1499)"><title>XMLID_762_</title><path d="M0.46 61.5 C0.29 61.49 0 61.53 0.02 61.54 C0.04 61.55 0.23 61.65 0.4 61.69 C0.42 61.69 0.45 61.69 0.46 61.69 C0.48 61.69 0.49 61.69 0.52 61.69 C0.68 61.65 0.87 61.55 0.9 61.54 C0.93 61.53 0.63 61.49 0.46 61.5 Z" class="st7"/></g><g id="shape162-50" transform="translate(2.85766,-20.019)"><title>XMLID_761_</title><path d="M2.36 61.69 C3.65 61.69 4.69 61.47 4.73 61.19 L0 61.19 C0.04 61.47 1.08 61.69 2.36 61.69 Z" class="st13"/></g><g id="shape163-52" transform="translate(2.85766,-20.1268)"><title>XMLID_760_</title><path d="M0.92 61.3 L0 61.3 C0.02 61.46 0.38 61.6 0.92 61.69 L0.92 61.3 Z" class="st14"/></g><g id="shape164-54" transform="translate(4.17256,-20.4348)"><title>XMLID_759_</title><path d="M1.05 58.9 C1.41 58.9 1.76 58.97 2.08 59.1 L1.04 61.69 L0 59.1 C0.33 58.97 0.68 58.9 1.05 58.9 Z" class="st13"/></g><g id="shape165-56" transform="translate(2.599,-20.5179)"><title>XMLID_758_</title><path d="M2.62 59.23 C4.04 59.23 5.2 60.33 5.25 61.69 L0 61.69 C0.05 60.33 1.2 59.23 2.62 59.23 Z" class="st13"/></g><g id="shape166-58" transform="translate(2.599,-20.521)"><title>XMLID_757_</title><path d="M1.18 61.69 L0 61.69 C0.03 60.84 0.49 60.09 1.18 59.65 L1.18 61.69 Z" class="st14"/></g><g id="shape167-60" transform="translate(2.38036,-20.4348)"><title>XMLID_756_</title><path d="M0 61.69 L5.68 61.69 L5.68 60.97 L5.09 60.97 C5.15 61.18 5.18 61.39 5.19 61.61 L0.51 61.61 C0.51 61.39 0.55 61.18 0.6 60.97 L0.01 60.97 L0.01 61.69 L0 61.69 Z" class="st15"/></g><g id="shape168-62" transform="translate(2.38036,-20.4348)"><title>XMLID_755_</title><path d="M0 61.69 L1.4 61.69 L1.4 61.61 L0.5 61.61 C0.51 61.39 0.54 61.17 0.59 60.97 L0 60.97 L0 61.69 Z" class="st16"/></g><g id="shape169-64" transform="translate(2.38036,-20.4378)"><title>XMLID_754_</title><rect width="5.685" height=".296" x="0" y="61.399" class="st15"/></g><g id="shape170-66" transform="translate(2.38036,-20.4378)"><title>XMLID_753_</title><rect width="1.398" height=".296" x="0" y="61.399" class="st16"/></g><g id="shape171-68" transform="translate(3.9878,-21.648)"><title>XMLID_750_</title><path d="M2.18 60.53 C2.28 60.57 2.37 60.61 2.46 60.66 L1.71 61.69 L2.18 60.53 ZM0 60.66 C0.09 60.62 0.18 60.58 0.27 60.54 L0.72 61.66 L0 60.66 Z" class="st15"/></g><g id="shape172-70" transform="translate(2.38036,-20.3978)"><title>XMLID_747_</title><path d="M5.17 61.4 L0.51 61.4 C0.51 61.46 0.5 61.51 0.5 61.57 L5.18 61.57 C5.18 61.51 5.18 61.45 5.17 61.4 ZM0 61.69 L5.68 61.69 L5.68 61.66 L0 61.66 L0 61.69 Z" class="st16"/></g><g id="shape173-72" transform="translate(2.38036,-20.3978)"><title>XMLID_744_</title><path d="M1.4 61.4 L1.4 61.57 L0.5 61.57 C0.5 61.51 0.51 61.45 0.51 61.4 L1.4 61.4 ZM0 61.69 L1.4 61.69 L1.4 61.66 L0 61.66 L0 61.69 Z" class="st17"/></g><g id="shape174-74" transform="translate(1.90306,-2.00468)"><title>XMLID_743_</title><path d="M0.42 58.14 C0.38 58.14 0.41 58.38 0.37 58.38 C0.37 58.38 0.02 61.39 0 61.46 L1.34 61.69 C1.42 61.64 1.6 60.49 1.63 60.4 C1.68 60.22 2.05 58.62 2.1 58.29 C2.32 57.4 2.72 55.51 3.29 55.54 C3.83 55.57 4.16 57.41 4.4 58.27 L4.81 60.4 C4.83 60.49 5.06 61.62 5.14 61.69 L6.64 61.66 C6.41 60.55 6.22 59.27 6 58.14 C5.73 55.56 5.61 54.18 5.66 51.67 C5.42 51.43 5.31 51.01 5.31 50.43 L1.43 50.43 C1.45 50.98 1.35 51.39 1.13 51.63 C1.1 52.65 1.15 53.81 1.09 54.2 C0.92 54.81 0.46 57.35 0.42 58.14 Z" class="st18"/></g><g id="shape175-76" transform="translate(-25.6775,-2.63266) rotate(-30.3113)"><title>XMLID_742_</title><rect width=".015" height="1.373" x="0" y="60.321" class="st19"/></g><g id="shape176-78" transform="translate(4.22799,-12.2375)"><title>XMLID_741_</title><path d="M0.76 61.03 C0.88 61.23 0.81 61.47 0.62 61.58 C0.43 61.69 0.19 61.63 0.07 61.44 C0 61.3 0.01 61.15 0.08 61.02 L0.22 61.25 C0.24 61.3 0.33 61.29 0.42 61.24 C0.51 61.19 0.56 61.11 0.53 61.07 L0.4 60.83 C0.55 60.82 0.69 60.9 0.76 61.03 Z" class="st20"/></g><g id="group177-80" transform="translate(4.48358,-12.6994)"><title>XMLID_40_</title><g id="group178-81"><title>Sheet.178</title></g><g id="group179-82"><title>Sheet.179</title></g><g id="group180-83"><title>Sheet.180</title></g><g id="group181-84"><title>Sheet.181</title></g><g id="group182-85"><title>Sheet.182</title></g><g id="group183-86"><title>Sheet.183</title></g><g id="group184-87"><title>Sheet.184</title></g><g id="group185-88"><title>Sheet.185</title></g><g id="group186-89"><title>Sheet.186</title></g><g id="group187-90"><title>Sheet.187</title></g><g id="group188-91"><title>Sheet.188</title></g><g id="group189-92"><title>Sheet.189</title></g><g id="group190-93"><title>Sheet.190</title></g><g id="group191-94"><title>Sheet.191</title></g><g id="group192-95"><title>Sheet.192</title></g><g id="group193-96"><title>Sheet.193</title></g><g id="group194-97"><title>Sheet.194</title></g><g id="group195-98"><title>Sheet.195</title></g><g id="group196-99"><title>Sheet.196</title></g><g id="group197-100"><title>Sheet.197</title></g><g id="group198-101"><title>Sheet.198</title></g><g id="group199-102"><title>Sheet.199</title></g><g id="group200-103"><title>Sheet.200</title></g><g id="group201-104"><title>Sheet.201</title></g><g id="group202-105"><title>Sheet.202</title></g><g id="group203-106"><title>Sheet.203</title></g><g id="group204-107"><title>Sheet.204</title></g><g id="group205-108"><title>Sheet.205</title></g><g id="group206-109"><title>Sheet.206</title></g><g id="group207-110"><title>Sheet.207</title></g><g id="group208-111"><title>Sheet.208</title></g><g id="group209-112"><title>Sheet.209</title></g><g id="group210-113"><title>Sheet.210</title></g><g id="group211-114"><title>Sheet.211</title></g><g id="group212-115"><title>Sheet.212</title></g><g id="group213-116"><title>Sheet.213</title></g><g id="group214-117"><title>Sheet.214</title></g><g id="group215-118"><title>Sheet.215</title></g><g id="group216-119"><title>Sheet.216</title></g><g id="group217-120"><title>Sheet.217</title></g><g id="group218-121"><title>Sheet.218</title></g><g id="group219-122"><title>Sheet.219</title></g><g id="group220-123"><title>Sheet.220</title></g><g id="group221-124"><title>Sheet.221</title></g><g id="group222-125"><title>Sheet.222</title></g><g id="group223-126"><title>Sheet.223</title></g><g id="group224-127"><title>Sheet.224</title></g><g id="group225-128"><title>Sheet.225</title></g><g id="group226-129"><title>Sheet.226</title></g><g id="group227-130"><title>Sheet.227</title></g><g id="group228-131"><title>Sheet.228</title></g><g id="group229-132"><title>Sheet.229</title></g><g id="group230-133"><title>Sheet.230</title></g><g id="group231-134"><title>Sheet.231</title></g><g id="group232-135"><title>Sheet.232</title></g><g id="group233-136"><title>Sheet.233</title></g><g id="group234-137"><title>Sheet.234</title></g><g id="group235-138"><title>Sheet.235</title></g><g id="group236-139"><title>Sheet.236</title></g><g id="group237-140"><title>Sheet.237</title></g><g id="group238-141"><title>Sheet.238</title></g><g id="group239-142"><title>Sheet.239</title></g><g id="group240-143"><title>Sheet.240</title></g><g id="group241-144"><title>Sheet.241</title></g><g id="group242-145"><title>Sheet.242</title></g><g id="group243-146"><title>Sheet.243</title></g><g id="group244-147"><title>Sheet.244</title></g><g id="group245-148"><title>Sheet.245</title></g><g id="group246-149"><title>Sheet.246</title></g><g id="group247-150"><title>Sheet.247</title></g><g id="group248-151"><title>Sheet.248</title></g><g id="group249-152"><title>Sheet.249</title></g><g id="group250-153"><title>Sheet.250</title></g><g id="group251-154"><title>Sheet.251</title></g><g id="group252-155"><title>Sheet.252</title></g><g id="group253-156"><title>Sheet.253</title></g><g id="group254-157"><title>Sheet.254</title></g><g id="group255-158"><title>Sheet.255</title></g><g id="group256-159"><title>Sheet.256</title></g><g id="group257-160"><title>Sheet.257</title></g><g id="shape258-161"><title>XMLID_498_</title><path d="M0 61.57 C0 61.5 0.05 61.44 0.11 61.44 C0.18 61.44 0.23 61.5 0.23 61.57 C0.23 61.64 0.18 61.69 0.11 61.69 C0.05 61.69 0 61.64 0 61.57 ZM0 61.57 C0 61.64 0.05 61.69 0.11 61.69 C0.17 61.69 0.22 61.64 0.22 61.57 C0.22 61.5 0.17 61.45 0.11 61.45 C0.05 61.45 0 61.5 0 61.57 Z" class="st21"/></g><g id="group259-163"><title>Sheet.259</title></g><g id="group260-164"><title>Sheet.260</title></g><g id="group261-165"><title>Sheet.261</title></g><g id="group262-166"><title>Sheet.262</title></g><g id="group263-167"><title>Sheet.263</title></g><g id="group264-168"><title>Sheet.264</title></g><g id="group265-169"><title>Sheet.265</title></g><g id="group266-170"><title>Sheet.266</title></g><g id="group267-171"><title>Sheet.267</title></g><g id="group268-172"><title>Sheet.268</title></g><g id="group269-173"><title>Sheet.269</title></g><g id="group270-174"><title>Sheet.270</title></g><g id="group271-175"><title>Sheet.271</title></g><g id="group272-176"><title>Sheet.272</title></g><g id="group273-177"><title>Sheet.273</title></g><g id="group274-178"><title>Sheet.274</title></g><g id="group275-179"><title>Sheet.275</title></g><g id="group276-180"><title>Sheet.276</title></g><g id="group277-181"><title>Sheet.277</title></g><g id="group278-182"><title>Sheet.278</title></g><g id="group279-183"><title>Sheet.279</title></g><g id="group280-184"><title>Sheet.280</title></g><g id="group281-185"><title>Sheet.281</title></g><g id="group282-186"><title>Sheet.282</title></g><g id="group283-187"><title>Sheet.283</title></g><g id="group284-188"><title>Sheet.284</title></g><g id="group285-189"><title>Sheet.285</title></g><g id="group286-190"><title>Sheet.286</title></g><g id="group287-191"><title>Sheet.287</title></g><g id="group288-192"><title>Sheet.288</title></g><g id="group289-193"><title>Sheet.289</title></g><g id="group290-194"><title>Sheet.290</title></g><g id="group291-195"><title>Sheet.291</title></g><g id="group292-196"><title>Sheet.292</title></g><g id="group293-197"><title>Sheet.293</title></g><g id="group294-198"><title>Sheet.294</title></g><g id="group295-199"><title>Sheet.295</title></g><g id="group296-200"><title>Sheet.296</title></g><g id="group297-201"><title>Sheet.297</title></g><g id="group298-202"><title>Sheet.298</title></g><g id="group299-203"><title>Sheet.299</title></g><g id="group300-204"><title>Sheet.300</title></g><g id="group301-205"><title>Sheet.301</title></g><g id="group302-206"><title>Sheet.302</title></g><g id="group303-207"><title>Sheet.303</title></g><g id="group304-208"><title>Sheet.304</title></g><g id="group305-209"><title>Sheet.305</title></g><g id="group306-210"><title>Sheet.306</title></g><g id="group307-211"><title>Sheet.307</title></g><g id="group308-212"><title>Sheet.308</title></g><g id="group309-213"><title>Sheet.309</title></g><g id="group310-214"><title>Sheet.310</title></g><g id="group311-215"><title>Sheet.311</title></g><g id="group312-216"><title>Sheet.312</title></g><g id="group313-217"><title>Sheet.313</title></g><g id="group314-218"><title>Sheet.314</title></g><g id="group315-219"><title>Sheet.315</title></g><g id="group316-220"><title>Sheet.316</title></g><g id="group317-221"><title>Sheet.317</title></g><g id="group318-222"><title>Sheet.318</title></g><g id="group319-223"><title>Sheet.319</title></g><g id="group320-224"><title>Sheet.320</title></g><g id="group321-225"><title>Sheet.321</title></g><g id="group322-226"><title>Sheet.322</title></g><g id="group323-227"><title>Sheet.323</title></g><g id="group324-228"><title>Sheet.324</title></g><g id="group325-229"><title>Sheet.325</title></g><g id="group326-230"><title>Sheet.326</title></g><g id="group327-231"><title>Sheet.327</title></g><g id="group328-232"><title>Sheet.328</title></g><g id="group329-233"><title>Sheet.329</title></g><g id="group330-234"><title>Sheet.330</title></g><g id="group331-235"><title>Sheet.331</title></g><g id="group332-236"><title>Sheet.332</title></g><g id="group333-237"><title>Sheet.333</title></g><g id="group334-238"><title>Sheet.334</title></g><g id="group335-239"><title>Sheet.335</title></g><g id="group336-240"><title>Sheet.336</title></g><g id="group337-241"><title>Sheet.337</title></g><g id="group338-242"><title>Sheet.338</title></g><g id="group339-243"><title>Sheet.339</title></g><g id="group340-244"><title>Sheet.340</title></g><g id="group341-245"><title>Sheet.341</title></g><g id="group342-246"><title>Sheet.342</title></g><g id="group343-247"><title>Sheet.343</title></g><g id="group344-248"><title>Sheet.344</title></g><g id="group345-249"><title>Sheet.345</title></g><g id="group346-250"><title>Sheet.346</title></g><g id="group347-251"><title>Sheet.347</title></g><g id="group348-252"><title>Sheet.348</title></g><g id="group349-253"><title>Sheet.349</title></g><g id="group350-254"><title>Sheet.350</title></g><g id="group351-255"><title>Sheet.351</title></g><g id="group352-256"><title>Sheet.352</title></g><g id="group353-257"><title>Sheet.353</title></g><g id="group354-258"><title>Sheet.354</title></g><g id="group355-259"><title>Sheet.355</title></g><g id="group356-260"><title>Sheet.356</title></g><g id="group357-261"><title>Sheet.357</title></g><g id="group358-262"><title>Sheet.358</title></g><g id="group359-263"><title>Sheet.359</title></g><g id="group360-264"><title>Sheet.360</title></g><g id="group361-265"><title>Sheet.361</title></g><g id="group362-266"><title>Sheet.362</title></g><g id="group363-267"><title>Sheet.363</title></g><g id="group364-268"><title>Sheet.364</title></g><g id="group365-269"><title>Sheet.365</title></g><g id="group366-270"><title>Sheet.366</title></g><g id="group367-271"><title>Sheet.367</title></g><g id="group368-272"><title>Sheet.368</title></g><g id="group369-273"><title>Sheet.369</title></g><g id="group370-274"><title>Sheet.370</title></g><g id="group371-275"><title>Sheet.371</title></g><g id="group372-276"><title>Sheet.372</title></g><g id="group373-277"><title>Sheet.373</title></g><g id="group374-278"><title>Sheet.374</title></g><g id="group375-279"><title>Sheet.375</title></g><g id="group376-280"><title>Sheet.376</title></g><g id="group377-281"><title>Sheet.377</title></g><g id="group378-282"><title>Sheet.378</title></g><g id="group379-283"><title>Sheet.379</title></g><g id="group380-284"><title>Sheet.380</title></g><g id="group381-285"><title>Sheet.381</title></g><g id="group382-286"><title>Sheet.382</title></g><g id="group383-287"><title>Sheet.383</title></g><g id="group384-288"><title>Sheet.384</title></g><g id="group385-289"><title>Sheet.385</title></g><g id="group386-290"><title>Sheet.386</title></g><g id="group387-291"><title>Sheet.387</title></g><g id="group388-292"><title>Sheet.388</title></g><g id="group389-293"><title>Sheet.389</title></g><g id="group390-294"><title>Sheet.390</title></g><g id="group391-295"><title>Sheet.391</title></g><g id="group392-296"><title>Sheet.392</title></g><g id="group393-297"><title>Sheet.393</title></g><g id="group394-298"><title>Sheet.394</title></g><g id="group395-299"><title>Sheet.395</title></g><g id="group396-300"><title>Sheet.396</title></g><g id="group397-301"><title>Sheet.397</title></g><g id="group398-302"><title>Sheet.398</title></g><g id="group399-303"><title>Sheet.399</title></g><g id="group400-304"><title>Sheet.400</title></g><g id="group401-305"><title>Sheet.401</title></g><g id="group402-306"><title>Sheet.402</title></g><g id="group403-307"><title>Sheet.403</title></g><g id="group404-308"><title>Sheet.404</title></g><g id="group405-309"><title>Sheet.405</title></g><g id="group406-310"><title>Sheet.406</title></g><g id="group407-311"><title>Sheet.407</title></g><g id="group408-312"><title>Sheet.408</title></g><g id="group409-313"><title>Sheet.409</title></g><g id="group410-314"><title>Sheet.410</title></g></g><g id="shape411-315" transform="translate(4.23107,-12.2467)"><title>XMLID_39_</title><path d="M0.1 61.42 C0.21 61.61 0.45 61.67 0.63 61.56 C0.69 61.53 0.72 61.49 0.75 61.45 C0.72 61.5 0.67 61.55 0.61 61.58 C0.42 61.69 0.18 61.63 0.07 61.44 C0 61.31 0.01 61.16 0.07 61.04 C0.02 61.16 0.03 61.3 0.1 61.42 Z" class="st22"/></g><g id="shape412-317" transform="translate(7.99407,-12.5577)"><title>XMLID_38_</title><path d="M0 61.5 C0.15 61.61 0.31 61.69 0.39 61.62 C0.55 61.49 1.56 60.7 1.49 60.63 C1.48 60.61 1.4 60.51 1.28 60.36 C0.87 60.79 0.45 61.16 0 61.5 Z" class="st3"/></g><g id="shape413-319" transform="translate(0.886861,-12.4469)"><title>XMLID_37_</title><path d="M0.27 59.76 C0.14 59.85 0.04 59.92 0 59.96 C0.02 60.4 0.54 61.12 1.28 61.69 C1.35 61.67 1.43 61.62 1.51 61.57 C1.05 61.02 0.63 60.43 0.27 59.76 Z" class="st3"/></g><g id="shape414-321" transform="translate(0.489621,0)"><title>XMLID_36_</title><path d="M0.25 60.99 C0.25 60.99 0.03 61.03 0.02 61.25 C0 61.47 0.27 61.45 0.71 61.55 C1.15 61.65 1.45 61.69 1.63 61.5 C1.81 61.31 1.92 61.13 2.27 61 C2.61 60.88 2.84 60.77 2.83 60.61 C2.83 60.46 2.78 60.33 2.72 60.3 C2.65 60.27 0.25 60.99 0.25 60.99 Z" class="st23"/></g><g id="shape415-323" transform="translate(0.625114,-0.378764)"><title>XMLID_35_</title><path d="M1.19 60.12 C1.19 60.12 0.76 60.79 0.59 60.93 C0.41 61.06 0.04 61.19 0.02 61.37 C0 61.55 0.61 61.69 1.05 61.68 C1.49 61.67 1.75 61.38 1.92 61.23 C2.08 61.08 2.65 60.8 2.65 60.8 C2.65 60.8 2.71 60.42 2.58 60.2 L1.19 60.12 Z" class="st5"/></g><g id="shape416-325" transform="translate(1.64747,-1.67826)"><title>XMLID_34_</title><path d="M0.2 60.85 C0.2 60.85 0.01 60.89 0 60.98 C0 61.08 0.02 61.42 0.02 61.42 C0.02 61.42 0.4 61.6 0.79 61.65 C1.19 61.69 1.45 61.59 1.53 61.57 C1.61 61.55 1.77 61.37 1.77 61.34 C1.78 61.31 1.78 60.97 1.78 60.97 C1.78 60.97 1.9 60.96 1.67 60.99 C1.44 61.01 1.39 61.02 1.25 61.04 C1.11 61.05 1.04 61.09 0.83 61.04 C0.63 60.98 0.42 60.93 0.37 60.92 C0.32 60.9 0.2 60.85 0.2 60.85 Z" class="st24"/></g><g id="shape417-327" transform="translate(1.87226,-1.7768)"><title>XMLID_33_</title><path d="M0.27 61.68 C0.17 61.65 0.08 61.63 0 61.6 C0.02 61.55 0.04 61.52 0.04 61.52 L0.33 61.61 C0.33 61.61 0.33 61.64 0.31 61.69 C0.3 61.69 0.28 61.69 0.27 61.68 Z" class="st25"/></g><g id="shape418-329" transform="translate(1.64747,-1.67826)"><title>XMLID_32_</title><path d="M0.2 60.85 C0.2 60.85 0.01 60.89 0 60.98 C0 61.08 0.02 61.42 0.02 61.42 C0.02 61.42 0.4 61.6 0.79 61.65 C1.19 61.69 1.45 61.59 1.53 61.57 C1.61 61.55 1.77 61.37 1.77 61.34 C1.78 61.31 1.78 60.97 1.78 60.97 C1.78 60.97 1.9 60.96 1.67 60.99 C1.44 61.01 1.39 61.02 1.25 61.04 C1.11 61.05 1.04 61.09 0.83 61.04 C0.63 60.98 0.42 60.93 0.37 60.92 C0.32 60.9 0.2 60.85 0.2 60.85 Z" class="st26"/></g><g id="shape419-331" transform="translate(6.96556,0)"><title>XMLID_31_</title><path d="M2.58 60.99 C2.58 60.99 2.81 61.03 2.82 61.25 C2.84 61.47 2.56 61.45 2.12 61.55 C1.68 61.65 1.38 61.69 1.21 61.5 C1.03 61.31 0.91 61.13 0.57 61 C0.23 60.88 0 60.77 0 60.61 C0.01 60.46 0.06 60.33 0.12 60.3 C0.18 60.27 2.58 60.99 2.58 60.99 Z" class="st23"/></g><g id="shape420-333" transform="translate(6.95632,-0.378764)"><title>XMLID_30_</title><path d="M1.52 60.12 C1.52 60.12 1.95 60.79 2.12 60.93 C2.3 61.06 2.67 61.19 2.69 61.37 C2.71 61.55 2.09 61.69 1.65 61.68 C1.21 61.67 0.95 61.38 0.79 61.23 C0.62 61.08 0.06 60.8 0.06 60.8 C0.06 60.8 0 60.42 0.13 60.2 L1.52 60.12 Z" class="st5"/></g><g id="shape421-335" transform="translate(6.73768,-1.67826)"><title>XMLID_29_</title><path d="M1.71 60.85 C1.71 60.85 1.89 60.89 1.9 60.98 C1.9 61.08 1.89 61.42 1.89 61.42 C1.89 61.42 1.5 61.6 1.11 61.65 C0.72 61.69 0.45 61.59 0.37 61.57 C0.29 61.55 0.14 61.37 0.13 61.34 C0.12 61.31 0.12 60.97 0.12 60.97 C0.12 60.97 0 60.96 0.23 60.99 C0.46 61.01 0.51 61.02 0.66 61.04 C0.8 61.05 0.86 61.09 1.07 61.04 C1.28 60.98 1.48 60.93 1.53 60.92 C1.58 60.9 1.71 60.85 1.71 60.85 Z" class="st24"/></g><g id="shape422-337" transform="translate(8.08337,-1.7768)"><title>XMLID_28_</title><path d="M0.06 61.68 C0.16 61.65 0.26 61.63 0.33 61.6 C0.31 61.55 0.3 61.52 0.3 61.52 L0 61.61 C0 61.61 0.01 61.64 0.02 61.69 C0.04 61.69 0.05 61.69 0.06 61.68 Z" class="st25"/></g><g id="shape423-339" transform="translate(6.73768,-1.67826)"><title>XMLID_27_</title><path d="M1.71 60.85 C1.71 60.85 1.89 60.89 1.9 60.98 C1.9 61.08 1.89 61.42 1.89 61.42 C1.89 61.42 1.5 61.6 1.11 61.65 C0.72 61.69 0.45 61.59 0.37 61.57 C0.29 61.55 0.14 61.37 0.13 61.34 C0.12 61.31 0.12 60.97 0.12 60.97 C0.12 60.97 0 60.96 0.23 60.99 C0.46 61.01 0.51 61.02 0.66 61.04 C0.8 61.05 0.86 61.09 1.07 61.04 C1.28 60.98 1.48 60.93 1.53 60.92 C1.58 60.9 1.71 60.85 1.71 60.85 Z" class="st26"/></g><g id="shape424-341" transform="translate(5.22879,-10.3375)"><title>XMLID_26_</title><path d="M0.4 59.83 C0.4 59.28 0.71 59.44 0.71 59.44 C0.71 59.44 1.07 59.42 0.86 59.93 C0.64 60.45 0.79 61.14 0.51 61.64 C0.51 61.64 0.26 61.69 0.05 61.55 C0 60.98 0.4 60.4 0.4 59.83 Z" class="st27"/></g><g id="shape425-343" transform="translate(3.96316,-9.49373)"><title>XMLID_25_</title><path d="M0 58.94 L2.52 58.94 L2.52 60.44 C2.52 61.13 1.95 61.69 1.26 61.69 C0.57 61.69 0 61.13 0 60.44 L0 58.94 Z" class="st28"/></g><g id="shape426-345" transform="translate(3.96316,-9.50605)"><title>XMLID_24_</title><path d="M0 58.95 L2.17 58.95 L2.17 60.45 C2.17 61.08 1.7 61.61 1.09 61.69 C0.47 61.61 0 61.08 0 60.45 L0 58.95 Z" class="st29"/></g><g id="shape427-347" transform="translate(3.96316,-11.714)"><title>XMLID_23_</title><rect width="2.519" height=".539" x="0" y="61.156" class="st30"/></g><g id="shape428-349" transform="translate(3.96316,-11.714)"><title>XMLID_22_</title><rect width="2.174" height=".539" x="0" y="61.156" class="st31"/></g><g id="shape429-351" transform="translate(3.4797,-12.8287)"><title>XMLID_21_</title><path d="M0.42 58.66 C0.28 58.69 0.13 58.71 0 58.72 L0 61.69 L0.42 61.69 L0.42 58.66 Z" class="st18"/></g><g id="shape430-353" transform="translate(3.5844,-12.9365)"><title>XMLID_20_</title><path d="M0.11 61.48 C0.17 61.48 0.22 61.53 0.22 61.59 C0.22 61.65 0.17 61.69 0.11 61.69 C0.05 61.69 0 61.65 0 61.59 C0 61.53 0.05 61.48 0.11 61.48 Z" class="st12"/></g><g id="shape431-355" transform="translate(3.6737,-13.0781)"><title>XMLID_19_</title><path d="M0.02 61.66 C0.03 61.66 0.04 61.67 0.04 61.68 C0.04 61.69 0.03 61.69 0.02 61.69 C0.01 61.69 0 61.69 0 61.68 C0 61.67 0.01 61.66 0.02 61.66 Z" class="st32"/></g><g id="shape432-357" transform="translate(3.6737,-12.9765)"><title>XMLID_18_</title><path d="M0.02 61.66 C0.03 61.66 0.04 61.67 0.04 61.68 C0.04 61.69 0.03 61.69 0.02 61.69 C0.01 61.69 0 61.69 0 61.68 C0 61.67 0.01 61.66 0.02 61.66 Z" class="st32"/></g><g id="shape433-359" transform="translate(3.62135,-13.0258)"><title>XMLID_17_</title><path d="M0 61.68 C0 61.67 0.01 61.66 0.02 61.66 C0.03 61.66 0.04 61.67 0.04 61.68 C0.04 61.69 0.03 61.69 0.02 61.69 C0.01 61.69 0 61.69 0 61.68 Z" class="st32"/></g><g id="shape434-361" transform="translate(3.72297,-13.0258)"><title>XMLID_16_</title><path d="M0 61.68 C0 61.67 0.01 61.66 0.02 61.66 C0.03 61.66 0.04 61.67 0.04 61.68 C0.04 61.69 0.03 61.69 0.02 61.69 C0.01 61.69 0 61.69 0 61.68 Z" class="st32"/></g><g id="shape435-363" transform="translate(6.63298,-12.8287)"><title>XMLID_15_</title><path d="M0.42 58.72 L0.42 61.69 L0 61.69 L0 58.68 C0.14 58.7 0.28 58.71 0.42 58.72 Z" class="st18"/></g><g id="shape436-365" transform="translate(17.8052,-11.363) rotate(11.2043)"><title>XMLID_14_</title><rect width=".225" height=".573" x="0" y="61.122" class="st33"/></g><g id="shape437-367" transform="translate(5.33349,-12.9426)"><title>XMLID_13_</title><path d="M0.21 60.77 L0.28 60.8 C0.34 60.81 0.38 60.86 0.39 60.91 C0.41 60.93 0.46 60.93 0.57 60.84 C0.6 60.81 0.62 60.8 0.62 60.8 C1.51 60.88 1.58 61.69 1.58 61.69 C1.14 61.03 0.87 61.64 0.87 61.64 C0.87 61.64 0.64 61.65 0.51 61.57 C0.51 61.5 0.5 61.43 0.5 61.37 C0.49 61.35 0.42 61.15 0.36 61.13 C0.33 61.19 0.27 61.22 0.2 61.21 L0.12 61.21 C0.05 61.19 0 61.12 0.02 61.05 L0.05 60.88 C0.06 60.81 0.14 60.76 0.21 60.77 Z" class="st34"/></g><g id="shape438-369" transform="translate(5.41047,-13.6601)"><title>XMLID_12_</title><path d="M0.14 61.51 L0.2 61.53 C0.26 61.54 0.3 61.6 0.29 61.66 L0.28 61.69 C0.29 61.63 0.25 61.57 0.19 61.57 L0.13 61.55 C0.07 61.54 0.01 61.57 0 61.64 L0.01 61.6 C0.01 61.54 0.07 61.5 0.14 61.51 Z" class="st35"/></g><g id="shape439-371" transform="translate(6.58063,-13.0781)"><title>XMLID_11_</title><path d="M0.28 61.69 C0.21 61.61 0.14 61.55 0.07 61.52 C0.06 61.45 0.04 61.37 0 61.27 C0.16 61.41 0.24 61.58 0.28 61.69 Z" class="st35"/></g><g id="shape440-373" transform="translate(6.73768,-12.9365)"><title>XMLID_10_</title><path d="M0.11 61.48 C0.17 61.48 0.22 61.53 0.22 61.59 C0.22 61.65 0.17 61.69 0.11 61.69 C0.05 61.69 0 61.65 0 61.59 C0 61.53 0.05 61.48 0.11 61.48 Z" class="st12"/></g><g id="shape441-375" transform="translate(6.82698,-13.0781)"><title>XMLID_9_</title><path d="M0.02 61.66 C0.03 61.66 0.04 61.67 0.04 61.68 C0.04 61.69 0.03 61.69 0.02 61.69 C0.01 61.69 0 61.69 0 61.68 C0 61.67 0.01 61.66 0.02 61.66 Z" class="st32"/></g><g id="shape442-377" transform="translate(6.82698,-12.9765)"><title>XMLID_8_</title><path d="M0.02 61.66 C0.03 61.66 0.04 61.67 0.04 61.68 C0.04 61.69 0.03 61.69 0.02 61.69 C0.01 61.69 0 61.69 0 61.68 C0 61.67 0.01 61.66 0.02 61.66 Z" class="st32"/></g><g id="shape443-379" transform="translate(6.77464,-13.0258)"><title>XMLID_7_</title><path d="M0 61.68 C0 61.67 0.01 61.66 0.02 61.66 C0.03 61.66 0.04 61.67 0.04 61.68 C0.04 61.69 0.03 61.69 0.02 61.69 C0.01 61.69 0 61.69 0 61.68 Z" class="st32"/></g><g id="shape444-381" transform="translate(6.87933,-13.0258)"><title>XMLID_6_</title><path d="M0 61.68 C0 61.67 0.01 61.66 0.02 61.66 C0.03 61.66 0.04 61.67 0.04 61.68 C0.04 61.69 0.03 61.69 0.02 61.69 C0.01 61.69 0 61.69 0 61.68 Z" class="st32"/></g></g><g id="shape445-383" transform="translate(-21.7571,-6.18738) rotate(-30)"><title>Sheet.445</title><desc>Preview</desc><rect width="53.156" height="4.583" x="0" y="57.112" class="st36"/><text x="13.55" y="61.8" class="st37">Preview</text></g></g></svg>