<svg xmlns="http://www.w3.org/2000/svg" xmlns:ev="http://www.w3.org/2001/xml-events" xmlns:xlink="http://www.w3.org/1999/xlink" width="50.354" height="52.113" class="st4" color-interpolation-filters="sRGB" viewBox="0 0 37.766 39.084" xml:space="preserve"><style type="text/css">.st1,.st2,.st3{stroke-linecap:butt}.st1{fill:#3999c6;stroke:#0070c0;stroke-width:.5}.st2,.st3{stroke:none;stroke-width:12.2892}.st2{fill:#b92025;fill-opacity:.3}.st3{fill:#0070c0}.st4{fill:none;fill-rule:evenodd;font-size:12px;overflow:visible;stroke-linecap:square;stroke-miterlimit:3}</style><g><title>Page-1</title><g id="group491-1" transform="translate(10.311,-10.311)"><title>Sheet.491</title><g id="shape414-2"><title>Sheet.414</title><path d="M0.66 20.62 a0.659374 0.659374 -180 0 0 -0.659374 0.659374 L0 38.43 a0.659374 0.659374 -180 0 0 0.659374 0.659374 L16.48 39.08 a0.659374 0.659374 -180 0 0 0.659374 -0.659374 L17.14 21.28 a0.659374 0.659374 -180 0 0 -0.659374 -0.659374 L0.66 20.62 Z" class="st1"/></g><g id="shape415-4" transform="translate(9.85764,-22.4187)"><title>Sheet.415</title></g><g id="shape416-5" transform="translate(15.1326,-19.7812)"><title>Sheet.416</title></g><g id="shape418-6" transform="translate(9.85764,-22.4187)"><title>Sheet.418</title></g><g id="shape419-7" transform="translate(1.97812,-1.97812)"><title>Sheet.419</title><path d="M11.87 24.58 L0 24.58 L0 39.08 L13.19 39.08 L13.19 24.58 L11.87 24.58 ZM3.96 37.77 L1.32 37.77 L1.32 25.9 L3.96 25.9 L3.96 37.77 ZM7.91 37.77 L5.27 37.77 L5.27 25.9 L7.91 25.9 L7.91 37.77 ZM11.87 37.77 L9.23 37.77 L9.23 25.9 L11.87 25.9 L11.87 37.77 Z" class="st2"/></g><g id="shape420-9" transform="translate(1.97812,-1.97812)"><title>Sheet.420</title><path d="M11.87 24.58 L0 24.58 L0 39.08 L13.19 39.08 L13.19 24.58 L11.87 24.58 ZM3.96 37.77 L1.32 37.77 L1.32 25.9 L3.96 25.9 L3.96 37.77 ZM7.91 37.77 L5.27 37.77 L5.27 25.9 L7.91 25.9 L7.91 37.77 ZM11.87 37.77 L9.23 37.77 L9.23 25.9 L11.87 25.9 L11.87 37.77 Z" class="st3"/></g></g></g></svg>