<svg xmlns="http://www.w3.org/2000/svg" xmlns:ev="http://www.w3.org/2001/xml-events" xmlns:xlink="http://www.w3.org/1999/xlink" width="28.066" height="27.932" class="st9" color-interpolation-filters="sRGB" viewBox="0 0 21.049 20.949" xml:space="preserve"><style type="text/css">.st1{fill:#b4bec1;stroke-linecap:butt}.st1,.st2{stroke:#fff;stroke-width:1.50116}.st2,.st3,.st4{stroke-linecap:butt}.st2{fill:#394d54}.st3,.st4{fill:#fce94f;stroke:none;stroke-width:.75}.st4{fill:#b4bec1}.st5{stroke:#fff;stroke-linecap:butt;stroke-width:1.50116}.st5,.st6{fill:#4f6a74}.st6,.st7,.st8{stroke-linecap:butt}.st6{stroke:none;stroke-width:.75}.st7,.st8{fill:#8a9aa0;stroke:#fff;stroke-width:1.50116}.st8{fill:none}.st9{fill:none;fill-rule:evenodd;font-size:12px;overflow:visible;stroke-linecap:square;stroke-miterlimit:3}</style><g><title>Page-1</title><g id="group388-1" transform="translate(1.50116,-1.50116)"><title>Sheet.388</title><g id="shape373-2" transform="translate(-1.70276,21.8706) rotate(-134.825)"><title>rect4182</title><path d="M0.04 20.95 L5.78 20.95 L5.75 15.2 L0 15.2 L0.04 20.95 Z" class="st1"/></g><g id="shape374-4" transform="translate(3.21334,26.7878) rotate(-134.825)"><title>rect4186</title><path d="M0.04 20.95 L5.78 20.95 L5.75 15.2 L0 15.2 L0.04 20.95 Z" class="st2"/></g><g id="shape375-6" transform="translate(2.71615,-9.83959)"><title>rect4188</title><rect width="5.531" height="5.506" x="0" y="15.444" class="st3"/></g><g id="shape376-8" transform="translate(9.88629,-2.63345)"><title>rect4190</title><rect width="5.491" height="5.531" x="0" y="15.418" class="st4"/></g><g id="shape377-10" transform="translate(18.8746,22.7971) rotate(135.438)"><title>rect4180</title><path d="M0.09 20.95 L5.86 20.95 L5.77 15.18 L0 15.18 L0.09 20.95 Z" class="st5"/></g><g id="shape378-12" transform="translate(9.90843,-9.80359)"><title>rect4192</title><rect width="5.509" height="5.503" x="0" y="15.446" class="st6"/></g><g id="shape379-14" transform="translate(23.7908,27.7144) rotate(135.438)"><title>rect4184</title><path d="M0.09 20.95 L5.86 20.95 L5.77 15.18 L0 15.18 L0.09 20.95 Z" class="st7"/></g><g id="shape380-16" transform="translate(2.51129,-9.83715)"><title>rect4168</title><rect width="5.736" height="5.702" x="0" y="15.247" class="st7"/></g><g id="shape381-18" transform="translate(9.88629,-2.42859)"><title>rect4170</title><rect width="5.701" height="5.736" x="0" y="15.213" class="st8"/></g><g id="shape382-20" transform="translate(9.90695,-9.80362)"><title>rect4172</title><rect width="5.715" height="5.702" x="0" y="15.247" class="st8"/></g><g id="shape383-22" transform="translate(2.51176,-2.42887)"><title>rect4174</title><rect width="5.736" height="5.736" x="0" y="15.214" class="st2"/></g><g id="shape384-24" transform="translate(18.8746,22.7971) rotate(135.438)"><title>rect4208</title><path d="M0.09 20.95 L5.86 20.95 L5.77 15.18 L0 15.18 L0.09 20.95 Z" class="st8"/></g><g id="shape385-26" transform="translate(-1.70283,21.8705) rotate(-134.825)"><title>rect4210</title><path d="M0.04 20.95 L5.78 20.95 L5.75 15.2 L0 15.2 L0.04 20.95 Z" class="st8"/></g><g id="shape386-28" transform="translate(23.7908,27.7144) rotate(135.438)"><title>rect4212</title><path d="M0.09 20.95 L5.86 20.95 L5.77 15.18 L0 15.18 L0.09 20.95 Z" class="st8"/></g><g id="shape387-30" transform="translate(3.21331,26.7878) rotate(-134.825)"><title>rect4214</title><path d="M0.04 20.95 L5.78 20.95 L5.75 15.2 L0 15.2 L0.04 20.95 Z" class="st8"/></g></g></g></svg>