<svg xmlns="http://www.w3.org/2000/svg" xmlns:ev="http://www.w3.org/2001/xml-events" xmlns:xlink="http://www.w3.org/1999/xlink" width="91.346" height="83.371" class="st14" color-interpolation-filters="sRGB" viewBox="0 0 68.51 62.528" xml:space="preserve"><style type="text/css">.st1,.st2{fill:#fff;stroke:none;stroke-linecap:round;stroke-linejoin:round;stroke-width:.75}.st2{fill:#9dbb61;stroke-width:.24}.st3{visibility:visible}.st4,.st5{stroke:none}.st4{fill:#5b9bd5;fill-opacity:.22;filter:url(#filter_2)}.st5{fill:#59b4d9;stroke-width:.75}.st6{fill:#7a7a7a}.st6,.st7,.st8{stroke:none;stroke-width:12.24}.st7{fill:#a0a1a2}.st8{fill:#fff;fill-opacity:.2}.st10,.st11,.st12,.st13,.st9{stroke:none;stroke-width:12.24}.st9{fill:#59b4d9}.st10{fill:#b8d432}.st11,.st12,.st13{fill:#fff}.st12{fill-opacity:.7}.st13{fill-opacity:.4}.st14{fill:none;fill-rule:evenodd;font-size:12px;overflow:visible;stroke-linecap:square;stroke-miterlimit:3}</style><defs id="Filters"><filter id="filter_2"><feGaussianBlur stdDeviation="2"/></filter></defs><g><title>Page-1</title><g id="group325-1" transform="translate(7.1899,-1.20811)"><title>Sheet.325</title><g id="group312-2"><title>Sheet.312</title><g id="shape313-3"><title>Sheet.313</title><rect width="60.945" height="60.945" x="0" y="1.583" class="st1"/></g></g><g id="group311-5" transform="translate(5.0501,-11.0319)"><title>Sheet.311</title><g id="shape310-6" transform="translate(58.3335,94.1874) rotate(142.595)"><title>Simple Arrow</title><path d="M0 62.53 L5.25 58.33 L5.25 60.43 L12.13 60.43 L12.13 62.53 L12.13 64.63 L5.25 64.63 L5.25 66.73 L0 62.53 Z" class="st2"/></g><g id="shape249-8" transform="translate(34.7274,-31.3993)"><title>Sheet.249</title><g id="shadow249-9" class="st3" transform="matrix(1,0,0,1,0.3456,1.9728)"><rect width="3.793" height="2.844" x="0" y="59.684" class="st4"/></g><rect width="3.793" height="2.844" x="0" y="59.684" class="st5"/></g><g id="shape250-13" transform="translate(29.0389,-31.3993)"><title>Sheet.250</title><g id="shadow250-14" class="st3" transform="matrix(1,0,0,1,0.3456,1.9728)"><rect width="3.793" height="2.844" x="0" y="59.684" class="st4"/></g><rect width="3.793" height="2.844" x="0" y="59.684" class="st5"/></g><g id="shape251-18" transform="translate(46.1044,-5.80104)"><title>Sheet.251</title><g id="shadow251-19" class="st3"><path d="M1.9 59.68 L0 59.68 L0 62.53 L2.84 62.53 C3.89 62.53 4.74 61.68 4.74 60.63 L4.74 57.79 L1.9 57.79 L1.9 59.68 Z" class="st4" transform="matrix(1,0,0,1,0.3456,1.9728)"/></g><path d="M1.9 59.68 L0 59.68 L0 62.53 L2.84 62.53 C3.89 62.53 4.74 61.68 4.74 60.63 L4.74 57.79 L1.9 57.79 L1.9 59.68 Z" class="st5"/></g><g id="shape252-23" transform="translate(5.38353,-12.4789)"><title>Sheet.252</title><g id="shadow252-24" class="st3" transform="matrix(1,0,0,1,0.3456,1.9728)"><rect width="2.844" height="3.793" x="0" y="58.736" class="st4"/></g><rect width="2.844" height="3.793" x="0" y="58.736" class="st5"/></g><g id="shape253-28" transform="translate(34.7274,-5.80104)"><title>Sheet.253</title><g id="shadow253-29" class="st3" transform="matrix(1,0,0,1,0.3456,1.9728)"><rect width="3.793" height="2.844" x="0" y="59.684" class="st4"/></g><rect width="3.793" height="2.844" x="0" y="59.684" class="st5"/></g><g id="shape254-33" transform="translate(48.0004,-12.4373)"><title>Sheet.254</title><g id="shadow254-34" class="st3" transform="matrix(1,0,0,1,0.3456,1.9728)"><rect width="2.844" height="3.793" x="0" y="58.736" class="st4"/></g><rect width="2.844" height="3.793" x="0" y="58.736" class="st5"/></g><g id="shape255-38" transform="translate(40.4159,-5.80104)"><title>Sheet.255</title><g id="shadow255-39" class="st3" transform="matrix(1,0,0,1,0.3456,1.9728)"><rect width="3.793" height="2.844" x="0" y="59.684" class="st4"/></g><rect width="3.793" height="2.844" x="0" y="59.684" class="st5"/></g><g id="shape256-43" transform="translate(29.0389,-5.80104)"><title>Sheet.256</title><g id="shadow256-44" class="st3" transform="matrix(1,0,0,1,0.3456,1.9728)"><rect width="3.793" height="2.844" x="0" y="59.684" class="st4"/></g><rect width="3.793" height="2.844" x="0" y="59.684" class="st5"/></g><g id="shape257-48" transform="translate(5.38353,-5.8427)"><title>Sheet.257</title><g id="shadow257-49" class="st3"><path d="M2.84 59.68 L2.84 57.79 L0 57.79 L0 60.63 C0 61.68 0.85 62.53 1.9 62.53 L4.74 62.53 L4.74 59.68 L2.84 59.68 Z" class="st4" transform="matrix(1,0,0,1,0.3456,1.9728)"/></g><path d="M2.84 59.68 L2.84 57.79 L0 57.79 L0 60.63 C0 61.68 0.85 62.53 1.9 62.53 L4.74 62.53 L4.74 59.68 L2.84 59.68 Z" class="st5"/></g><g id="shape258-53" transform="translate(5.38353,-23.8559)"><title>Sheet.258</title><g id="shadow258-54" class="st3" transform="matrix(1,0,0,1,0.3456,1.9728)"><rect width="2.844" height="3.793" x="0" y="58.736" class="st4"/></g><rect width="2.844" height="3.793" x="0" y="58.736" class="st5"/></g><g id="shape259-58" transform="translate(5.38353,-29.545)"><title>Sheet.259</title><g id="shadow259-59" class="st3"><path d="M2.84 60.63 L4.74 60.63 L4.74 57.79 L1.9 57.79 C0.85 57.79 0 58.64 0 59.68 L0 62.53 L2.84 62.53 L2.84 60.63 Z" class="st4" transform="matrix(1,0,0,1,0.3456,1.9728)"/></g><path d="M2.84 60.63 L4.74 60.63 L4.74 57.79 L1.9 57.79 C0.85 57.79 0 58.64 0 59.68 L0 62.53 L2.84 62.53 L2.84 60.63 Z" class="st5"/></g><g id="shape260-63" transform="translate(5.38353,-18.1674)"><title>Sheet.260</title><g id="shadow260-64" class="st3" transform="matrix(1,0,0,1,0.3456,1.9728)"><rect width="2.844" height="3.793" x="0" y="58.736" class="st4"/></g><rect width="2.844" height="3.793" x="0" y="58.736" class="st5"/></g><g id="shape261-68" transform="translate(48.0004,-18.1258)"><title>Sheet.261</title><g id="shadow261-69" class="st3" transform="matrix(1,0,0,1,0.3456,1.9728)"><rect width="2.844" height="3.793" x="0" y="58.736" class="st4"/></g><rect width="2.844" height="3.793" x="0" y="58.736" class="st5"/></g><g id="shape262-73" transform="translate(48.0004,-23.8148)"><title>Sheet.262</title><g id="shadow262-74" class="st3" transform="matrix(1,0,0,1,0.3456,1.9728)"><rect width="2.844" height="3.793" x="0" y="58.736" class="st4"/></g><rect width="2.844" height="3.793" x="0" y="58.736" class="st5"/></g><g id="shape263-78" transform="translate(40.4154,-31.3993)"><title>Sheet.263</title><g id="shadow263-79" class="st3" transform="matrix(1,0,0,1,0.3456,1.9728)"><rect width="3.793" height="2.844" x="0" y="59.684" class="st4"/></g><rect width="3.793" height="2.844" x="0" y="59.684" class="st5"/></g><g id="shape264-83" transform="translate(46.1044,-29.5033)"><title>Sheet.264</title><g id="shadow264-84" class="st3"><path d="M1.9 60.63 L1.9 62.53 L4.74 62.53 L4.74 59.68 C4.74 58.64 3.89 57.79 2.84 57.79 L0 57.79 L0 60.63 L1.9 60.63 Z" class="st4" transform="matrix(1,0,0,1,0.3456,1.9728)"/></g><path d="M1.9 60.63 L1.9 62.53 L4.74 62.53 L4.74 59.68 C4.74 58.64 3.89 57.79 2.84 57.79 L0 57.79 L0 60.63 L1.9 60.63 Z" class="st5"/></g><g id="shape279-88" transform="translate(17.7756,-5.80331)"><title>Sheet.279</title><g id="shadow279-89" class="st3" transform="matrix(1,0,0,1,0.3456,1.9728)"><rect width="3.793" height="2.844" x="0" y="59.684" class="st4"/></g><rect width="3.793" height="2.844" x="0" y="59.684" class="st5"/></g><g id="shape280-93" transform="translate(23.4195,-5.81164)"><title>Sheet.280</title><g id="shadow280-94" class="st3" transform="matrix(1,0,0,1,0.3456,1.9728)"><rect width="3.793" height="2.844" x="0" y="59.684" class="st4"/></g><rect width="3.793" height="2.844" x="0" y="59.684" class="st5"/></g><g id="shape281-98" transform="translate(12.0871,-5.80331)"><title>Sheet.281</title><g id="shadow281-99" class="st3" transform="matrix(1,0,0,1,0.3456,1.9728)"><rect width="3.793" height="2.844" x="0" y="59.684" class="st4"/></g><rect width="3.793" height="2.844" x="0" y="59.684" class="st5"/></g><g id="shape282-103" transform="translate(17.7029,-31.391)"><title>Sheet.282</title><g id="shadow282-104" class="st3" transform="matrix(1,0,0,1,0.3456,1.9728)"><rect width="3.793" height="2.844" x="0" y="59.684" class="st4"/></g><rect width="3.793" height="2.844" x="0" y="59.684" class="st5"/></g><g id="shape283-108" transform="translate(23.3468,-31.3993)"><title>Sheet.283</title><g id="shadow283-109" class="st3" transform="matrix(1,0,0,1,0.3456,1.9728)"><rect width="3.793" height="2.844" x="0" y="59.684" class="st4"/></g><rect width="3.793" height="2.844" x="0" y="59.684" class="st5"/></g><g id="shape284-113" transform="translate(12.0144,-31.391)"><title>Sheet.284</title><g id="shadow284-114" class="st3" transform="matrix(1,0,0,1,0.3456,1.9728)"><rect width="3.793" height="2.844" x="0" y="59.684" class="st4"/></g><rect width="3.793" height="2.844" x="0" y="59.684" class="st5"/></g><g id="group285-118"><title>Azure Portal - Virtual Machines</title><g id="shape286-119" transform="translate(2.17703,7.10543E-15)"><title>Sheet.286</title><g id="shadow286-120" class="st3"><path d="M5.98 60.11 L5.68 60.11 L2.71 60.11 L2.56 60.11 C2.97 61.56 2.42 61.77 0 61.77 L0 62.53 L3.08 62.53 L5.32 62.53 L8.22 62.53 L8.22 61.77 C5.8 61.77 5.57 61.56 5.98 60.11 Z" class="st4" transform="matrix(1,0,0,1,0.3456,1.9728)"/></g><path d="M5.98 60.11 L5.68 60.11 L2.71 60.11 L2.56 60.11 C2.97 61.56 2.42 61.77 0 61.77 L0 62.53 L3.08 62.53 L5.32 62.53 L8.22 62.53 L8.22 61.77 C5.8 61.77 5.57 61.56 5.98 60.11 Z" class="st6"/></g><g id="shape287-124" transform="translate(0.000251534,-2.418)"><title>Sheet.287</title><g id="shadow287-125" class="st3"><path d="M11.82 53.34 L0.68 53.34 C0.31 53.34 0 53.68 0 54.05 L0 61.82 C0 62.19 0.31 62.53 0.68 62.53 L11.82 62.53 C12.19 62.53 12.58 62.19 12.58 61.82 L12.58 54.05 C12.58 53.68 12.19 53.34 11.82 53.34 Z" class="st4" transform="matrix(1,0,0,1,0.3456,1.9728)"/></g><path d="M11.82 53.34 L0.68 53.34 C0.31 53.34 0 53.68 0 54.05 L0 61.82 C0 62.19 0.31 62.53 0.68 62.53 L11.82 62.53 C12.19 62.53 12.58 62.19 12.58 61.82 L12.58 54.05 C12.58 53.68 12.19 53.34 11.82 53.34 Z" class="st7"/></g><g id="shape288-129" transform="translate(0,-2.41774)"><title>Sheet.288</title><g id="shadow288-130" class="st3"><path d="M11.82 53.34 C11.82 53.34 11.82 53.34 11.82 53.34 L0.68 53.34 C0.31 53.34 0 53.68 0 54.05 L0 61.82 C0 62.19 0.31 62.53 0.68 62.53 L0.95 62.53 L11.82 53.34 Z" class="st4" transform="matrix(1,0,0,1,0.3456,1.9728)"/></g><path d="M11.82 53.34 C11.82 53.34 11.82 53.34 11.82 53.34 L0.68 53.34 C0.31 53.34 0 53.68 0 54.05 L0 61.82 C0 62.19 0.31 62.53 0.68 62.53 L0.95 62.53 L11.82 53.34 Z" class="st8"/></g><g id="shape289-134" transform="translate(0.953314,-3.38565)"><title>Sheet.289</title><g id="shadow289-135" class="st3" transform="matrix(1,0,0,1,0.3456,1.9728)"><rect width="10.642" height="7.254" x="0" y="55.273" class="st4"/></g><rect width="10.642" height="7.254" x="0" y="55.273" class="st9"/></g><g id="shape290-139" transform="translate(0.953314,-3.38565)"><title>Sheet.290</title><g id="shadow290-140" class="st3"><path d="M0 62.53 L0.01 62.53 L0.01 55.27 L9.74 55.26 L9.74 55.26 L0 55.27 L0 62.53 Z" class="st4" transform="matrix(1,0,0,1,0.3456,1.9728)"/></g><path d="M0 62.53 L0.01 62.53 L0.01 55.27 L9.74 55.26 L9.74 55.26 L0 55.27 L0 62.53 Z" class="st9"/></g><g id="shape291-144" transform="translate(2.17703,0)"><title>Sheet.291</title><g id="shadow291-145" class="st3" transform="matrix(1,0,0,1,0.3456,1.9728)"><rect width="8.223" height=".76" x="0" y="61.768" class="st4"/></g><rect width="8.223" height=".76" x="0" y="61.768" class="st7"/></g><g id="shape292-149" transform="translate(6.06172,-10.9025)"><title>Sheet.292</title><g id="shadow292-150" class="st3"><path d="M0.36 62.35 C0.36 62.45 0.28 62.53 0.18 62.53 C0.08 62.53 0 62.45 0 62.35 C0 62.25 0.08 62.17 0.18 62.17 C0.28 62.17 0.36 62.25 0.36 62.35 Z" class="st4" transform="matrix(1,0,0,1,0.3456,1.9728)"/></g><path d="M0.36 62.35 C0.36 62.45 0.28 62.53 0.18 62.53 C0.08 62.53 0 62.45 0 62.35 C0 62.25 0.08 62.17 0.18 62.17 C0.28 62.17 0.36 62.25 0.36 62.35 Z" class="st10"/></g><g id="shape293-154" transform="translate(4.14427,-7.23286)"><title>Sheet.293</title><g id="shadow293-155" class="st3"><path d="M2.28 62.53 C2.27 62.53 2.26 62.52 2.25 62.52 L0.03 61.24 C0.01 61.23 0 61.21 0 61.18 C0 61.16 0.01 61.14 0.03 61.12 L2.23 59.85 C2.26 59.84 2.28 59.84 2.3 59.85 L4.52 61.13 C4.54 61.14 4.55 61.17 4.55 61.19 C4.55 61.21 4.54 61.24 4.52 61.25 L2.32 62.52 C2.3 62.52 2.29 62.53 2.28 62.53 Z" class="st4" transform="matrix(1,0,0,1,0.3456,1.9728)"/></g><path d="M2.28 62.53 C2.27 62.53 2.26 62.52 2.25 62.52 L0.03 61.24 C0.01 61.23 0 61.21 0 61.18 C0 61.16 0.01 61.14 0.03 61.12 L2.23 59.85 C2.26 59.84 2.28 59.84 2.3 59.85 L4.52 61.13 C4.54 61.14 4.55 61.17 4.55 61.19 C4.55 61.21 4.54 61.24 4.52 61.25 L2.32 62.52 C2.3 62.52 2.29 62.53 2.28 62.53 Z" class="st11"/></g><g id="shape294-159" transform="translate(3.83162,-4.12591)"><title>Sheet.294</title><g id="shadow294-160" class="st3"><path d="M2.28 62.53 C2.26 62.53 2.25 62.52 2.24 62.52 L0.03 61.24 C0.01 61.23 0 61.21 0 61.19 L0 58.63 C0 58.61 0.01 58.58 0.03 58.57 C0.05 58.56 0.08 58.56 0.1 58.57 L2.31 59.85 C2.33 59.86 2.34 59.88 2.34 59.9 L2.34 62.46 C2.34 62.49 2.33 62.51 2.31 62.52 C2.3 62.52 2.29 62.53 2.28 62.53 Z" class="st4" transform="matrix(1,0,0,1,0.3456,1.9728)"/></g><path d="M2.28 62.53 C2.26 62.53 2.25 62.52 2.24 62.52 L0.03 61.24 C0.01 61.23 0 61.21 0 61.19 L0 58.63 C0 58.61 0.01 58.58 0.03 58.57 C0.05 58.56 0.08 58.56 0.1 58.57 L2.31 59.85 C2.33 59.86 2.34 59.88 2.34 59.9 L2.34 62.46 C2.34 62.49 2.33 62.51 2.31 62.52 C2.3 62.52 2.29 62.53 2.28 62.53 Z" class="st12"/></g><g id="shape295-164" transform="translate(6.6654,-4.12591)"><title>Sheet.295</title><g id="shadow295-165" class="st3"><path d="M0.07 62.53 C0.06 62.53 0.04 62.52 0.03 62.52 C0.01 62.51 0 62.49 0 62.46 L0 59.92 C0 59.9 0.01 59.87 0.03 59.86 L2.24 58.59 C2.26 58.58 2.29 58.58 2.31 58.59 C2.33 58.6 2.34 58.62 2.34 58.65 L2.34 61.19 C2.34 61.21 2.33 61.23 2.31 61.24 L0.1 62.52 C0.09 62.52 0.08 62.53 0.07 62.53 Z" class="st4" transform="matrix(1,0,0,1,0.3456,1.9728)"/></g><path d="M0.07 62.53 C0.06 62.53 0.04 62.52 0.03 62.52 C0.01 62.51 0 62.49 0 62.46 L0 59.92 C0 59.9 0.01 59.87 0.03 59.86 L2.24 58.59 C2.26 58.58 2.29 58.58 2.31 58.59 C2.33 58.6 2.34 58.62 2.34 58.65 L2.34 61.19 C2.34 61.21 2.33 61.23 2.31 61.24 L0.1 62.52 C0.09 62.52 0.08 62.53 0.07 62.53 Z" class="st13"/></g></g><g id="group296-169" transform="translate(20.3506,-13.3961)"><title>Azure Portal - Virtual Machines.296</title><g id="shape297-170" transform="translate(2.55966,7.10543E-15)"><title>Sheet.297</title><g id="shadow297-171" class="st3"><path d="M7.03 59.68 L6.68 59.68 L3.19 59.68 L3.01 59.68 C3.49 61.39 2.84 61.63 0 61.63 L0 62.53 L3.62 62.53 L6.26 62.53 L9.67 62.53 L9.67 61.63 C6.83 61.63 6.55 61.39 7.03 59.68 Z" class="st4" transform="matrix(1,0,0,1,0.3456,1.9728)"/></g><path d="M7.03 59.68 L6.68 59.68 L3.19 59.68 L3.01 59.68 C3.49 61.39 2.84 61.63 0 61.63 L0 62.53 L3.62 62.53 L6.26 62.53 L9.67 62.53 L9.67 61.63 C6.83 61.63 6.55 61.39 7.03 59.68 Z" class="st6"/></g><g id="shape298-175" transform="translate(0.000295744,-2.84298)"><title>Sheet.298</title><g id="shadow298-176" class="st3"><path d="M13.89 51.72 L0.8 51.72 C0.36 51.72 0 52.12 0 52.56 L0 61.69 C0 62.13 0.36 62.53 0.8 62.53 L13.89 62.53 C14.34 62.53 14.79 62.13 14.79 61.69 L14.79 52.56 C14.79 52.12 14.34 51.72 13.89 51.72 Z" class="st4" transform="matrix(1,0,0,1,0.3456,1.9728)"/></g><path d="M13.89 51.72 L0.8 51.72 C0.36 51.72 0 52.12 0 52.56 L0 61.69 C0 62.13 0.36 62.53 0.8 62.53 L13.89 62.53 C14.34 62.53 14.79 62.13 14.79 61.69 L14.79 52.56 C14.79 52.12 14.34 51.72 13.89 51.72 Z" class="st7"/></g><g id="shape299-180" transform="translate(0,-2.84269)"><title>Sheet.299</title><g id="shadow299-181" class="st3"><path d="M13.9 51.72 C13.9 51.72 13.9 51.72 13.89 51.72 L0.8 51.72 C0.36 51.72 0 52.12 0 52.56 L0 61.69 C0 62.13 0.36 62.53 0.8 62.53 L1.11 62.53 L13.9 51.72 Z" class="st4" transform="matrix(1,0,0,1,0.3456,1.9728)"/></g><path d="M13.9 51.72 C13.9 51.72 13.9 51.72 13.89 51.72 L0.8 51.72 C0.36 51.72 0 52.12 0 52.56 L0 61.69 C0 62.13 0.36 62.53 0.8 62.53 L1.11 62.53 L13.9 51.72 Z" class="st8"/></g><g id="shape300-185" transform="translate(1.12087,-3.98071)"><title>Sheet.300</title><g id="shadow300-186" class="st3" transform="matrix(1,0,0,1,0.3456,1.9728)"><rect width="12.512" height="8.53" x="0" y="53.998" class="st4"/></g><rect width="12.512" height="8.53" x="0" y="53.998" class="st9"/></g><g id="shape301-190" transform="translate(1.12087,-3.98071)"><title>Sheet.301</title><g id="shadow301-191" class="st3"><path d="M0 62.53 L0.02 62.53 L0.02 54 L11.46 53.98 L11.46 53.98 L0 54 L0 62.53 Z" class="st4" transform="matrix(1,0,0,1,0.3456,1.9728)"/></g><path d="M0 62.53 L0.02 62.53 L0.02 54 L11.46 53.98 L11.46 53.98 L0 54 L0 62.53 Z" class="st9"/></g><g id="shape302-195" transform="translate(2.55966,0)"><title>Sheet.302</title><g id="shadow302-196" class="st3" transform="matrix(1,0,0,1,0.3456,1.9728)"><rect width="9.668" height=".893" x="0" y="61.635" class="st4"/></g><rect width="9.668" height=".893" x="0" y="61.635" class="st7"/></g><g id="shape303-200" transform="translate(7.12713,-12.8187)"><title>Sheet.303</title><g id="shadow303-201" class="st3"><path d="M0.42 62.32 C0.42 62.43 0.33 62.53 0.21 62.53 C0.09 62.53 0 62.43 0 62.32 C0 62.2 0.09 62.11 0.21 62.11 C0.33 62.11 0.42 62.2 0.42 62.32 Z" class="st4" transform="matrix(1,0,0,1,0.3456,1.9728)"/></g><path d="M0.42 62.32 C0.42 62.43 0.33 62.53 0.21 62.53 C0.09 62.53 0 62.43 0 62.32 C0 62.2 0.09 62.11 0.21 62.11 C0.33 62.11 0.42 62.2 0.42 62.32 Z" class="st10"/></g><g id="shape304-205" transform="translate(4.87267,-8.50411)"><title>Sheet.304</title><g id="shadow304-206" class="st3"><path d="M2.68 62.53 C2.67 62.53 2.66 62.52 2.64 62.52 L0.04 61.01 C0.02 61 0 60.97 0 60.95 C0 60.92 0.02 60.89 0.04 60.88 L2.63 59.38 C2.65 59.37 2.68 59.37 2.7 59.38 L5.31 60.89 C5.33 60.9 5.35 60.93 5.35 60.96 C5.35 60.98 5.33 61.01 5.31 61.02 L2.72 62.52 C2.71 62.52 2.7 62.53 2.68 62.53 Z" class="st4" transform="matrix(1,0,0,1,0.3456,1.9728)"/></g><path d="M2.68 62.53 C2.67 62.53 2.66 62.52 2.64 62.52 L0.04 61.01 C0.02 61 0 60.97 0 60.95 C0 60.92 0.02 60.89 0.04 60.88 L2.63 59.38 C2.65 59.37 2.68 59.37 2.7 59.38 L5.31 60.89 C5.33 60.9 5.35 60.93 5.35 60.96 C5.35 60.98 5.33 61.01 5.31 61.02 L2.72 62.52 C2.71 62.52 2.7 62.53 2.68 62.53 Z" class="st11"/></g><g id="shape305-210" transform="translate(4.50506,-4.85108)"><title>Sheet.305</title><g id="shadow305-211" class="st3"><path d="M2.68 62.53 C2.66 62.53 2.65 62.52 2.64 62.52 L0.04 61.02 C0.02 61.01 0 60.98 0 60.95 L0 57.94 C0 57.92 0.02 57.89 0.04 57.88 C0.06 57.86 0.09 57.86 0.12 57.88 L2.72 59.37 C2.74 59.39 2.75 59.41 2.75 59.44 L2.75 62.45 C2.75 62.48 2.74 62.5 2.72 62.52 C2.7 62.52 2.69 62.53 2.68 62.53 Z" class="st4" transform="matrix(1,0,0,1,0.3456,1.9728)"/></g><path d="M2.68 62.53 C2.66 62.53 2.65 62.52 2.64 62.52 L0.04 61.02 C0.02 61.01 0 60.98 0 60.95 L0 57.94 C0 57.92 0.02 57.89 0.04 57.88 C0.06 57.86 0.09 57.86 0.12 57.88 L2.72 59.37 C2.74 59.39 2.75 59.41 2.75 59.44 L2.75 62.45 C2.75 62.48 2.74 62.5 2.72 62.52 C2.7 62.52 2.69 62.53 2.68 62.53 Z" class="st12"/></g><g id="shape306-215" transform="translate(7.83691,-4.85108)"><title>Sheet.306</title><g id="shadow306-216" class="st3"><path d="M0.08 62.53 C0.06 62.53 0.05 62.52 0.04 62.52 C0.02 62.5 0 62.48 0 62.45 L0 59.46 C0 59.43 0.02 59.41 0.04 59.39 L2.63 57.9 C2.66 57.88 2.69 57.88 2.71 57.9 C2.74 57.91 2.75 57.94 2.75 57.96 L2.75 60.95 C2.75 60.98 2.74 61.01 2.71 61.02 L0.12 62.52 C0.11 62.52 0.09 62.53 0.08 62.53 Z" class="st4" transform="matrix(1,0,0,1,0.3456,1.9728)"/></g><path d="M0.08 62.53 C0.06 62.53 0.05 62.52 0.04 62.52 C0.02 62.5 0 62.48 0 62.45 L0 59.46 C0 59.43 0.02 59.41 0.04 59.39 L2.63 57.9 C2.66 57.88 2.69 57.88 2.71 57.9 C2.74 57.91 2.75 57.94 2.75 57.96 L2.75 60.95 C2.75 60.98 2.74 61.01 2.71 61.02 L0.12 62.52 C0.11 62.52 0.09 62.53 0.08 62.53 Z" class="st13"/></g></g></g></g></g></svg>