<svg xmlns="http://www.w3.org/2000/svg" xmlns:ev="http://www.w3.org/2001/xml-events" xmlns:xlink="http://www.w3.org/1999/xlink" width="85" height="82.667" class="st17" color-interpolation-filters="sRGB" viewBox="0 0 63.75 62" xml:space="preserve"><style type="text/css">.st1{fill:#fff;stroke:none;stroke-linecap:round;stroke-linejoin:round;stroke-width:.75}.st2{visibility:visible}.st3{fill:#5b9bd5;fill-opacity:.22;filter:url(#filter_2);stroke:none}.st4{fill:#7a7a7a}.st4,.st5,.st6{stroke:none;stroke-width:12.24}.st5{fill:#a0a1a2}.st6{fill:#fff;fill-opacity:.2}.st10,.st11{stroke:none;stroke-width:12.24}.st7{fill:#59b4d9}.st7,.st8,.st9{stroke:none;stroke-width:12.24}.st8{fill:#b8d432}.st10,.st11,.st9{fill:#fff}.st10{fill-opacity:.7}.st11{fill-opacity:.4}.st12,.st13{fill:#3999c6;stroke:none;stroke-width:.75}.st13{fill:#59b4d9;fill-opacity:.4}.st14{fill:#fff;fill-opacity:.3}.st14,.st15,.st16{stroke:none;stroke-width:.75}.st15{fill:#fff;fill-opacity:.7}.st16{fill:#3e3e3e}.st17{fill:none;fill-rule:evenodd;font-size:12px;overflow:visible;stroke-linecap:square;stroke-miterlimit:3}</style><defs id="Filters"><filter id="filter_2"><feGaussianBlur stdDeviation="2"/></filter></defs><g><title>Page-1</title><g id="shape73-1" transform="translate(0.375,-0.375)"><title>Sheet.73</title><rect width="63" height="61.25" x="0" y=".75" class="st1"/></g><g id="group28-3" transform="translate(19.7137,-19.7756)"><title>Azure Portal - Virtual Machines</title><g id="shape29-4" transform="translate(4.21016,0)"><title>Sheet.29</title><g id="shadow29-5" class="st2"><path d="M11.56 57.32 L10.98 57.32 L5.25 57.32 L4.95 57.32 C5.74 60.13 4.68 60.53 0 60.53 L0 62 L5.95 62 L10.29 62 L15.9 62 L15.9 60.53 C11.23 60.53 10.77 60.13 11.56 57.32 Z" class="st3" transform="matrix(1,0,0,1,0.3456,1.9728)"/></g><path d="M11.56 57.32 L10.98 57.32 L5.25 57.32 L4.95 57.32 C5.74 60.13 4.68 60.53 0 60.53 L0 62 L5.95 62 L10.29 62 L15.9 62 L15.9 60.53 C11.23 60.53 10.77 60.13 11.56 57.32 Z" class="st4"/></g><g id="shape30-9" transform="translate(0.000486443,-4.67617)"><title>Sheet.30</title><g id="shadow30-10" class="st2"><path d="M22.85 44.23 L1.32 44.23 C0.59 44.23 0 44.88 0 45.61 L0 60.63 C0 61.35 0.59 62 1.32 62 L22.85 62 C23.58 62 24.32 61.35 24.32 60.63 L24.32 45.61 C24.32 44.88 23.58 44.23 22.85 44.23 Z" class="st3" transform="matrix(1,0,0,1,0.3456,1.9728)"/></g><path d="M22.85 44.23 L1.32 44.23 C0.59 44.23 0 44.88 0 45.61 L0 60.63 C0 61.35 0.59 62 1.32 62 L22.85 62 C23.58 62 24.32 61.35 24.32 60.63 L24.32 45.61 C24.32 44.88 23.58 44.23 22.85 44.23 Z" class="st5"/></g><g id="shape31-14" transform="translate(0,-4.67569)"><title>Sheet.31</title><g id="shadow31-15" class="st2"><path d="M22.87 44.23 C22.86 44.23 22.86 44.23 22.85 44.23 L1.32 44.23 C0.59 44.23 0 44.88 0 45.61 L0 60.63 C0 61.35 0.59 62 1.32 62 L1.83 62 L22.87 44.23 Z" class="st3" transform="matrix(1,0,0,1,0.3456,1.9728)"/></g><path d="M22.87 44.23 C22.86 44.23 22.86 44.23 22.85 44.23 L1.32 44.23 C0.59 44.23 0 44.88 0 45.61 L0 60.63 C0 61.35 0.59 62 1.32 62 L1.83 62 L22.87 44.23 Z" class="st6"/></g><g id="shape32-19" transform="translate(1.84362,-6.54752)"><title>Sheet.32</title><g id="shadow32-20" class="st2" transform="matrix(1,0,0,1,0.3456,1.9728)"><rect width="20.58" height="14.03" x="0" y="47.971" class="st3"/></g><rect width="20.58" height="14.03" x="0" y="47.971" class="st7"/></g><g id="shape33-24" transform="translate(1.84362,-6.54752)"><title>Sheet.33</title><g id="shadow33-25" class="st2"><path d="M0 62 L0.03 62 L0.03 47.97 L18.84 47.94 L18.84 47.94 L0 47.97 L0 62 Z" class="st3" transform="matrix(1,0,0,1,0.3456,1.9728)"/></g><path d="M0 62 L0.03 62 L0.03 47.97 L18.84 47.94 L18.84 47.94 L0 47.97 L0 62 Z" class="st7"/></g><g id="shape34-29" transform="translate(4.21016,-7.10543E-15)"><title>Sheet.34</title><g id="shadow34-30" class="st2" transform="matrix(1,0,0,1,0.3456,1.9728)"><rect width="15.903" height="1.47" x="0" y="60.531" class="st3"/></g><rect width="15.903" height="1.47" x="0" y="60.531" class="st5"/></g><g id="shape35-34" transform="translate(11.7228,-21.0844)"><title>Sheet.35</title><g id="shadow35-35" class="st2"><path d="M0.69 61.65 C0.69 61.85 0.54 62 0.34 62 C0.15 62 0 61.85 0 61.65 C0 61.46 0.15 61.31 0.34 61.31 C0.54 61.31 0.69 61.46 0.69 61.65 Z" class="st3" transform="matrix(1,0,0,1,0.3456,1.9728)"/></g><path d="M0.69 61.65 C0.69 61.85 0.54 62 0.34 62 C0.15 62 0 61.85 0 61.65 C0 61.46 0.15 61.31 0.34 61.31 C0.54 61.31 0.69 61.46 0.69 61.65 Z" class="st8"/></g><g id="shape36-39" transform="translate(8.01463,-13.9877)"><title>Sheet.36</title><g id="shadow36-40" class="st2"><path d="M4.41 62 C4.39 62 4.37 61.99 4.35 61.98 L0.06 59.51 C0.02 59.49 0 59.44 0 59.4 C0 59.35 0.02 59.31 0.06 59.29 L4.32 56.83 C4.36 56.81 4.41 56.81 4.45 56.83 L8.73 59.3 C8.77 59.33 8.8 59.37 8.8 59.41 C8.8 59.46 8.77 59.5 8.73 59.53 L4.48 61.98 C4.46 61.99 4.44 62 4.41 62 Z" class="st3" transform="matrix(1,0,0,1,0.3456,1.9728)"/></g><path d="M4.41 62 C4.39 62 4.37 61.99 4.35 61.98 L0.06 59.51 C0.02 59.49 0 59.44 0 59.4 C0 59.35 0.02 59.31 0.06 59.29 L4.32 56.83 C4.36 56.81 4.41 56.81 4.45 56.83 L8.73 59.3 C8.77 59.33 8.8 59.37 8.8 59.41 C8.8 59.46 8.77 59.5 8.73 59.53 L4.48 61.98 C4.46 61.99 4.44 62 4.41 62 Z" class="st9"/></g><g id="shape37-44" transform="translate(7.40998,-7.97912)"><title>Sheet.37</title><g id="shadow37-45" class="st2"><path d="M4.4 62 C4.38 62 4.36 61.99 4.34 61.98 L0.07 59.52 C0.02 59.5 0 59.45 0 59.41 L0 54.46 C0 54.41 0.02 54.37 0.07 54.35 C0.11 54.32 0.15 54.32 0.2 54.35 L4.47 56.81 C4.5 56.84 4.53 56.88 4.53 56.92 L4.53 61.87 C4.53 61.92 4.5 61.96 4.47 61.98 C4.44 61.99 4.42 62 4.4 62 Z" class="st3" transform="matrix(1,0,0,1,0.3456,1.9728)"/></g><path d="M4.4 62 C4.38 62 4.36 61.99 4.34 61.98 L0.07 59.52 C0.02 59.5 0 59.45 0 59.41 L0 54.46 C0 54.41 0.02 54.37 0.07 54.35 C0.11 54.32 0.15 54.32 0.2 54.35 L4.47 56.81 C4.5 56.84 4.53 56.88 4.53 56.92 L4.53 61.87 C4.53 61.92 4.5 61.96 4.47 61.98 C4.44 61.99 4.42 62 4.4 62 Z" class="st10"/></g><g id="shape38-49" transform="translate(12.8902,-7.97912)"><title>Sheet.38</title><g id="shadow38-50" class="st2"><path d="M0.13 62 C0.11 62 0.08 61.99 0.06 61.98 C0.02 61.96 0 61.92 0 61.87 L0 56.96 C0 56.91 0.02 56.87 0.06 56.84 L4.33 54.38 C4.37 54.36 4.42 54.36 4.46 54.38 C4.5 54.4 4.53 54.45 4.53 54.49 L4.53 59.41 C4.53 59.45 4.5 59.5 4.46 59.52 L0.19 61.98 C0.18 61.99 0.15 62 0.13 62 Z" class="st3" transform="matrix(1,0,0,1,0.3456,1.9728)"/></g><path d="M0.13 62 C0.11 62 0.08 61.99 0.06 61.98 C0.02 61.96 0 61.92 0 61.87 L0 56.96 C0 56.91 0.02 56.87 0.06 56.84 L4.33 54.38 C4.37 54.36 4.42 54.36 4.46 54.38 C4.5 54.4 4.53 54.45 4.53 54.49 L4.53 59.41 C4.53 59.45 4.5 59.5 4.46 59.52 L0.19 61.98 C0.18 61.99 0.15 62 0.13 62 Z" class="st11"/></g></g><g id="group49-54" transform="translate(37.3581,-36.9709)"><title>Network Security Group</title><g id="shape50-55"><title>Sheet.50</title><path d="M8.28 50.35 C5.36 50.03 4.86 48.76 4.86 48.76 C4.86 48.76 4.19 50.41 0 50.41 L0 57.2 C0 58.02 0.45 58.79 1.09 59.45 C2.52 60.97 4.86 62 4.86 62 C4.86 62 9.71 59.88 9.71 57.2 L9.71 50.41 C9.18 50.41 8.7 50.38 8.28 50.35 Z" class="st12"/></g><g id="shape51-57" transform="translate(0,-2.54718)"><title>Sheet.51</title><path d="M6.08 55.69 L8.28 52.9 C5.36 52.58 4.86 51.31 4.86 51.31 C4.86 51.31 4.19 52.95 0 52.95 L0 59.74 C0 60.57 0.45 61.34 1.09 62 L2.73 59.93 L6.08 55.69 Z" class="st13"/></g><g id="group52-59" transform="translate(0.981725,-1.32666)"><title>Sheet.52</title><g id="shape53-60" transform="translate(0.0265331,0)"><title>Sheet.53</title><path d="M0 56.56 L0 58.18 C0 58.84 0.37 59.45 0.88 59.98 C2.02 61.2 3.87 62 3.87 62 L3.87 56.56 L0 56.56 Z" class="st14"/></g><g id="shape54-62" transform="translate(3.87384,0)"><title>Sheet.54</title><path d="M0 62 C0 62 3.87 60.3 3.87 58.18 L3.87 56.56 L0 56.56 L0 62 Z" class="st15"/></g><g id="shape55-64" transform="translate(0,-5.43929)"><title>Sheet.55</title><path d="M3.87 56.88 C3.87 56.88 3.34 58.21 0 58.21 L0 62 L3.87 62 L3.87 56.88 Z" class="st15"/></g><g id="shape56-66" transform="translate(3.87384,-5.43929)"><title>Sheet.56</title><path d="M2.71 58.15 C0.4 57.89 0 56.91 0 56.91 L0 62 L3.87 62 L3.87 58.21 C3.45 58.21 3.05 58.18 2.71 58.15 Z" class="st14"/></g></g><g id="group57-68" transform="translate(1.32931,-5.43504)"><title>Sheet.57</title><g id="shape58-69" transform="translate(-3.44724E-14,-0.0437796)"><title>Sheet.58</title><path d="M2.21 62 L1.73 62 L0.49 60.09 C0.46 60.04 0.43 59.99 0.41 59.94 L0.4 59.94 C0.41 59.99 0.42 60.11 0.42 60.29 L0.42 62 L0 62 L0 59.4 L0.5 59.4 L1.7 61.27 C1.75 61.34 1.79 61.4 1.8 61.43 L1.81 61.43 C1.8 61.36 1.79 61.24 1.79 61.08 L1.79 59.4 L2.21 59.4 L2.21 62 Z" class="st16"/></g><g id="shape59-71" transform="translate(2.7276,0)"><title>Sheet.59</title><path d="M0 61.85 L0 61.41 C0.04 61.44 0.09 61.48 0.14 61.51 C0.2 61.53 0.26 61.56 0.32 61.58 C0.38 61.6 0.44 61.61 0.5 61.63 C0.57 61.64 0.62 61.64 0.68 61.64 C0.86 61.64 0.99 61.61 1.08 61.55 C1.17 61.49 1.21 61.4 1.21 61.29 C1.21 61.23 1.2 61.17 1.17 61.13 C1.14 61.08 1.1 61.04 1.05 61 C0.99 60.97 0.93 60.93 0.86 60.9 C0.79 60.86 0.71 60.83 0.63 60.79 C0.54 60.74 0.46 60.69 0.38 60.64 C0.3 60.6 0.24 60.54 0.18 60.48 C0.12 60.43 0.08 60.36 0.05 60.29 C0.02 60.21 0 60.12 0 60.03 C0 59.9 0.03 59.8 0.08 59.71 C0.14 59.62 0.21 59.54 0.3 59.48 C0.39 59.43 0.49 59.38 0.61 59.35 C0.72 59.33 0.84 59.31 0.96 59.31 C1.23 59.31 1.43 59.34 1.55 59.4 L1.55 59.83 C1.41 59.72 1.22 59.67 0.98 59.67 C0.92 59.67 0.86 59.68 0.79 59.69 C0.73 59.7 0.67 59.72 0.62 59.75 C0.57 59.78 0.53 59.81 0.5 59.85 C0.47 59.9 0.45 59.95 0.45 60.01 C0.45 60.07 0.47 60.12 0.49 60.16 C0.51 60.21 0.55 60.24 0.6 60.28 C0.64 60.32 0.7 60.35 0.77 60.38 C0.83 60.42 0.91 60.45 1 60.49 C1.09 60.54 1.18 60.59 1.26 60.64 C1.34 60.69 1.41 60.75 1.47 60.81 C1.53 60.87 1.58 60.94 1.61 61.02 C1.65 61.1 1.67 61.19 1.67 61.28 C1.67 61.42 1.64 61.53 1.59 61.62 C1.53 61.71 1.46 61.78 1.37 61.84 C1.28 61.9 1.18 61.94 1.06 61.96 C0.94 61.99 0.82 62 0.69 62 C0.65 62 0.59 62 0.53 61.99 C0.47 61.98 0.4 61.97 0.33 61.96 C0.27 61.95 0.2 61.93 0.15 61.91 C0.09 61.9 0.04 61.88 0 61.85 Z" class="st16"/></g><g id="shape60-73" transform="translate(4.70485,-0.000530662)"><title>Sheet.60</title><path d="M2.2 61.78 C1.93 61.93 1.62 62 1.29 62 C0.91 62 0.6 61.88 0.36 61.64 C0.12 61.4 0 61.08 0 60.69 C0 60.29 0.13 59.96 0.39 59.7 C0.65 59.44 0.98 59.31 1.38 59.31 C1.67 59.31 1.92 59.35 2.11 59.44 L2.11 59.88 C1.91 59.75 1.68 59.68 1.4 59.68 C1.12 59.68 0.9 59.78 0.72 59.96 C0.54 60.14 0.45 60.38 0.45 60.67 C0.45 60.97 0.53 61.2 0.68 61.37 C0.83 61.54 1.04 61.63 1.3 61.63 C1.48 61.63 1.64 61.59 1.77 61.52 L1.77 60.91 L1.22 60.91 L1.22 60.54 L2.2 60.54 C2.2 60.54 2.2 61.78 2.2 61.78 Z" class="st16"/></g></g></g></g></svg>