<svg xmlns="http://www.w3.org/2000/svg" xmlns:ev="http://www.w3.org/2001/xml-events" xmlns:xlink="http://www.w3.org/1999/xlink" width="28.268" height="31.317" class="st5" color-interpolation-filters="sRGB" viewBox="0 0 21.201 23.488" xml:space="preserve"><style type="text/css">.st1,.st2{fill:#a0a1a2;stroke:none;stroke-linecap:butt;stroke-width:.749999}.st2{fill:#59b4d9}.st3{fill-opacity:.15}.st3,.st4{fill:#fff;stroke:none;stroke-linecap:butt;stroke-width:.749999}.st5{fill:none;fill-rule:evenodd;font-size:12px;overflow:visible;stroke-linecap:square;stroke-miterlimit:3}</style><g><title>Page-1</title><g id="group1-1" transform="translate(6.66142,-7.63462)"><title>Sheet.1</title><g id="shape2-2" transform="translate(0.905476,-5.22784)"><title>Sheet.2</title><path d="M5.84 23.33 L5.84 22.96 C5.84 22.21 5.57 21.51 5.09 21.01 C4.65 20.5 3.66 20.17 2.92 20.17 C2.19 20.17 1.2 20.5 0.75 21.01 C0.29 21.51 0 22.21 0 22.96 L0 23.33 L1.35 23.49 L1.35 23.15 C1.35 22.7 1.5 22.14 1.76 21.85 C2.02 21.56 2.56 21.42 2.92 21.4 C3.28 21.4 3.83 21.56 4.08 21.85 C4.34 22.14 4.49 22.51 4.49 22.94 L4.49 23.49 L5.84 23.33 Z" class="st1"/></g><g id="shape3-4"><title>Sheet.3</title><path d="M0.91 18.11 C0.24 18.11 0 18.5 0 19.01 L0 22.58 C0 23.03 0.27 23.49 0.78 23.49 L6.87 23.49 C7.45 23.49 7.65 23.03 7.65 22.58 L7.65 19.01 C7.65 18.55 7.47 18.11 6.75 18.11 L0.91 18.11 Z" class="st2"/></g><g id="shape4-6"><title>Sheet.4</title><path d="M5.38 18.11 L0.91 18.11 C0.24 18.11 0 18.5 0 19.01 L0 22.58 C0 23.03 0.27 23.49 0.78 23.49 L1.93 23.49 L5.38 18.11 Z" class="st3"/></g><g id="shape5-8" transform="translate(0.973814,-0.478366)"><title>Sheet.5</title><path d="M1.83 20.05 L2.82 19.06 L3.81 20.05 L3.11 20.05 L3.11 20.77 L2.51 20.77 L2.51 20.05 C2.51 20.05 1.83 20.05 1.83 20.05 ZM0 21.56 L0 20.97 L1.03 20.97 L1.03 20.29 L1.98 21.25 L1.03 22.21 L1.03 21.54 L0 21.54 L0 21.56 ZM2.82 23.49 L1.81 22.48 L2.51 22.48 L2.51 21.78 L3.11 21.78 L3.11 22.48 L3.83 22.48 L2.82 23.49 ZM5.64 21.56 L4.61 21.56 L4.61 22.24 L3.64 21.27 L4.61 20.29 L4.61 20.97 L5.64 20.97 L5.64 21.56 Z" class="st4"/></g></g></g></svg>