<svg xmlns="http://www.w3.org/2000/svg" xmlns:ev="http://www.w3.org/2001/xml-events" xmlns:xlink="http://www.w3.org/1999/xlink" width="40.162" height="37.602" class="st2" color-interpolation-filters="sRGB" viewBox="0 0 30.122 28.202" xml:space="preserve"><style type="text/css">.st1{fill:#0078d7;stroke:none;stroke-linecap:butt;stroke-width:2.66087}.st2{fill:none;fill-rule:evenodd;font-size:12px;overflow:visible;stroke-linecap:square;stroke-miterlimit:3}</style><g><title>Page-1</title><g id="group153-1" transform="translate(2.66087,-2.66087)"><title>Sheet.153</title><g id="group154-2"><title>Sheet.154</title><g id="shape155-3"><title>Sheet.155</title><path d="M23.28 5.32 L1.33 5.32 C0.6 5.32 0 5.98 0 6.71 L0 22.03 C0 22.76 0.6 23.42 1.33 23.42 L8.82 23.42 C9.62 26.28 8.56 26.67 3.78 26.67 L3.78 28.2 L9.82 28.2 L14.26 28.2 L19.96 28.2 L19.96 26.67 C15.19 26.67 14.72 26.28 15.52 23.42 L23.28 23.42 C24.01 23.42 24.8 22.76 24.8 22.03 L24.8 6.71 C24.8 5.98 24.01 5.32 23.28 5.32 ZM22.88 7.18 L22.88 21.5 L1.86 21.5 L1.86 7.18 L22.88 7.18 Z" class="st1"/></g><g id="group156-5" transform="translate(7.89853,-9.23816)"><title>Sheet.156</title><g id="group157-6" transform="translate(0.37702,-5.00837)"><title>Sheet.157</title><g id="shape158-7"><title>Sheet.158</title><path d="M7.69 25.94 L3.85 23.76 L0 25.94 L0 26.01 L3.85 28.2 L7.69 25.94 Z" class="st1"/></g></g><g id="group159-9" transform="translate(4.63731,-4.61853E-14)"><title>Sheet.159</title><g id="shape160-10"><title>Sheet.160</title><path d="M0 23.82 L0 28.2 L3.85 26.01 L3.85 21.63 L0 23.82 Z" class="st1"/></g></g><g id="group161-12"><title>Sheet.161</title><g id="shape162-13"><title>Sheet.162</title><path d="M3.85 23.82 L0 21.63 L0 26.01 L3.85 28.2 L3.85 23.82 Z" class="st1"/></g></g></g></g></g></g></svg>