<svg xmlns="http://www.w3.org/2000/svg" xmlns:ev="http://www.w3.org/2001/xml-events" xmlns:xlink="http://www.w3.org/1999/xlink" width="37.52" height="34.653" class="st9" color-interpolation-filters="sRGB" viewBox="0 0 28.14 25.989" xml:space="preserve"><style type="text/css">.st1{fill:#a0a1a2;stroke:none;stroke-linecap:butt;stroke-width:7.64999}.st2{fill:#7a7a7a}.st2,.st3{stroke:none;stroke-width:.999999}.st3,.st4{fill:none}.st5,.st6,.st7,.st8{stroke:none;stroke-linecap:butt;stroke-width:7.64999}.st6{fill:#b8d432}.st7,.st8{fill:#fff}.st8{fill-opacity:.2}.st9{fill:none;fill-rule:evenodd;font-size:12px;overflow:visible;stroke-linecap:square;stroke-miterlimit:3}</style><g><title>Page-1</title><g id="group33-1" transform="translate(7.64999,-7.64999)"><title>Azure Files Storage</title><g id="shape34-2"><title>Sheet.34</title><path d="M0 25.52 C0 25.78 0.2 25.99 0.47 25.99 L12.36 25.99 C12.61 25.99 12.84 25.8 12.84 25.52 L12.84 17.28 L0 17.28 L0 25.52 Z" class="st1"/></g><g id="group35-4" transform="translate(3.19744E-14,-8.70859)"><title>Sheet.35</title><g id="shape36-5"><title>Sheet.36</title><path d="M12.36 24.02 L0.47 24.02 C0.2 24.02 0 24.26 0 24.49 L0 25.99 L12.84 25.99 L12.84 24.49 C12.84 24.26 12.63 24.06 12.36 24.06 L12.36 24.02 Z" class="st2"/></g><g id="group37-7"><title>Sheet.37</title><g id="shape38-8"><title>Sheet.38</title><path d="M12.36 24.02 L0.47 24.02 C0.2 24.02 0 24.26 0 24.49 L0 25.99 L12.84 25.99 L12.84 24.49 C12.84 24.26 12.63 24.06 12.36 24.06 L12.36 24.02 Z" class="st3"/></g><g id="shape39-10"><title>Sheet.39</title><path d="M12.36 24.02 L0.47 24.02 C0.2 24.02 0 24.26 0 24.49 L0 25.99 L12.84 25.99 L12.84 24.49 C12.84 24.26 12.63 24.06 12.36 24.06 L12.36 24.02 Z" class="st4"/><path d="M12.36 24.02 L0.47 24.02 C0.2 24.02 0 24.26 0 24.49 L0 25.99 L12.84 25.99 L12.84 24.49 C12.84 24.26 12.63 24.06 12.36 24.06" class="st5"/></g></g></g><g id="shape40-13" transform="translate(1.02711,-3.60568)"><title>Sheet.40</title><rect width="10.785" height="1.742" x="0" y="24.248" class="st6"/></g><g id="shape41-15" transform="translate(1.02711,-6.21818)"><title>Sheet.41</title><rect width="10.785" height="1.742" x="0" y="24.248" class="st7"/></g><g id="shape42-17" transform="translate(1.02711,-0.993183)"><title>Sheet.42</title><rect width="10.785" height="1.742" x="0" y="24.248" class="st6"/></g><g id="shape43-19" transform="translate(2.29816E-14,-0.0995012)"><title>Sheet.43</title><path d="M0.51 15.4 C0.24 15.4 0 15.61 0 15.89 L0 17.72 L0 18.53 L0 25.49 C0 25.78 0.24 25.99 0.51 25.99 L1.09 25.99 L11.2 15.4 L0.51 15.4 Z" class="st8"/></g></g></g></svg>