<svg xmlns="http://www.w3.org/2000/svg" xmlns:ev="http://www.w3.org/2001/xml-events" xmlns:xlink="http://www.w3.org/1999/xlink" width="20.902" height="20.905" class="st9" color-interpolation-filters="sRGB" viewBox="0 0 15.676 15.678" xml:space="preserve"><style type="text/css">.st1{fill:#a0a1a2}.st1,.st2,.st3,.st4,.st5,.st6,.st7,.st8{stroke:none;stroke-linecap:butt;stroke-width:.75}.st2{fill:#fff;fill-opacity:.2}.st3{fill:#59b4d9}.st4{fill:#b8d432}.st5{fill:#fff}.st6{fill:#7a7a7a}.st7,.st8{fill:#fff;fill-opacity:.7}.st8{fill-opacity:.4}.st9{fill:none;fill-rule:evenodd;font-size:12px;overflow:visible;stroke-linecap:square;stroke-miterlimit:3}</style><g><title>Page-1</title><g id="group1-1" transform="translate(0.75,-0.75)"><title>Sheet.1</title><g id="shape2-2" transform="translate(0.000283465,-6.3085)"><title>Sheet.2</title><path d="M10.13 7.81 L0.59 7.81 C0.26 7.81 0 8.1 0 8.43 L0 15.07 C0 15.39 0.26 15.68 0.59 15.68 L10.13 15.68 C10.45 15.68 10.78 15.39 10.78 15.07 L10.78 8.43 C10.78 8.1 10.45 7.81 10.13 7.81 Z" class="st1"/></g><g id="shape3-4" transform="translate(1.4988E-14,-6.3085)"><title>Sheet.3</title><path d="M10.13 7.81 C10.13 7.81 10.13 7.81 10.13 7.81 L0.59 7.81 C0.26 7.81 0 8.1 0 8.43 L0 15.07 C0 15.39 0.26 15.68 0.59 15.68 L0.81 15.68 L10.13 7.81 Z" class="st2"/></g><g id="shape4-6" transform="translate(0.816945,-7.13679)"><title>Sheet.4</title><path d="M9.14 15.68 L0 15.68 L0 9.47 L9.14 9.46 L9.14 15.68 Z" class="st3"/></g><g id="shape5-8" transform="translate(5.19449,-13.5694)"><title>Sheet.5</title><path d="M0.31 15.53 C0.31 15.61 0.24 15.68 0.15 15.68 C0.07 15.68 0 15.61 0 15.53 C0 15.44 0.07 15.37 0.15 15.37 C0.24 15.37 0.31 15.44 0.31 15.53 Z" class="st4"/></g><g id="shape6-10" transform="translate(3.55124,-10.4289)"><title>Sheet.6</title><path d="M1.96 15.68 C1.95 15.68 1.94 15.68 1.93 15.67 L0.03 14.58 C0.01 14.57 0 14.55 0 14.53 C0 14.51 0.01 14.49 0.03 14.48 L1.91 13.39 C1.93 13.38 1.95 13.38 1.97 13.39 L3.87 14.49 C3.89 14.5 3.9 14.51 3.9 14.53 C3.9 14.56 3.89 14.57 3.87 14.58 L1.98 15.67 C1.97 15.68 1.97 15.68 1.96 15.68 Z" class="st5"/></g><g id="shape7-12" transform="translate(1.68633,-4.19499)"><title>Sheet.7</title><path d="M10.13 7.81 L0.59 7.81 C0.26 7.81 0 8.1 0 8.43 L0 15.07 C0 15.39 0.26 15.68 0.59 15.68 L10.13 15.68 C10.45 15.68 10.78 15.39 10.78 15.07 L10.78 8.43 C10.78 8.1 10.45 7.81 10.13 7.81 Z" class="st1"/></g><g id="shape8-14" transform="translate(1.68633,-4.19528)"><title>Sheet.8</title><path d="M10.13 7.81 C10.13 7.81 10.13 7.81 10.13 7.81 L0.59 7.81 C0.26 7.81 0 8.1 0 8.43 L0 15.07 C0 15.39 0.26 15.68 0.59 15.68 L0.81 15.68 L10.13 7.81 Z" class="st2"/></g><g id="shape9-16" transform="translate(2.50299,-5.02328)"><title>Sheet.9</title><path d="M9.14 15.68 L0 15.68 L0 9.47 L9.14 9.46 L9.14 15.68 Z" class="st3"/></g><g id="shape10-18" transform="translate(6.88054,-11.4559)"><title>Sheet.10</title><path d="M0.31 15.53 C0.31 15.61 0.24 15.68 0.15 15.68 C0.07 15.68 0 15.61 0 15.53 C0 15.44 0.07 15.37 0.15 15.37 C0.24 15.37 0.31 15.44 0.31 15.53 Z" class="st4"/></g><g id="shape11-20" transform="translate(5.23757,-8.31572)"><title>Sheet.11</title><path d="M1.96 15.68 C1.95 15.68 1.94 15.68 1.93 15.67 L0.03 14.58 C0.01 14.57 0 14.55 0 14.53 C0 14.51 0.01 14.49 0.03 14.48 L1.91 13.39 C1.93 13.38 1.95 13.38 1.97 13.39 L3.87 14.49 C3.89 14.5 3.9 14.51 3.9 14.53 C3.9 14.56 3.89 14.57 3.87 14.58 L1.98 15.67 C1.97 15.68 1.97 15.68 1.96 15.68 Z" class="st5"/></g><g id="shape12-22" transform="translate(5.2611,-3.55271E-15)"><title>Sheet.12</title><path d="M5.12 13.61 L4.87 13.61 L2.33 13.61 L2.19 13.61 C2.55 14.85 2.07 15.03 0 15.03 L0 15.68 L2.64 15.68 L4.56 15.68 L7.05 15.68 L7.05 15.03 C4.97 15.03 4.77 14.85 5.12 13.61 Z" class="st6"/></g><g id="shape13-24" transform="translate(3.39619,-2.06929)"><title>Sheet.13</title><path d="M10.13 7.81 L0.59 7.81 C0.26 7.81 0 8.1 0 8.43 L0 15.07 C0 15.39 0.26 15.68 0.59 15.68 L10.13 15.68 C10.45 15.68 10.78 15.39 10.78 15.07 L10.78 8.43 C10.78 8.1 10.45 7.81 10.13 7.81 Z" class="st1"/></g><g id="shape14-26" transform="translate(3.39591,-2.06929)"><title>Sheet.14</title><path d="M10.13 7.81 C10.13 7.81 10.13 7.81 10.13 7.81 L0.59 7.81 C0.26 7.81 0 8.1 0 8.43 L0 15.07 C0 15.39 0.26 15.68 0.59 15.68 L0.81 15.68 L10.13 7.81 Z" class="st2"/></g><g id="shape15-28" transform="translate(4.21285,-2.89729)"><title>Sheet.15</title><path d="M9.14 15.68 L0 15.68 L0 9.47 L9.14 9.46 L9.14 15.68 Z" class="st3"/></g><g id="shape16-30" transform="translate(5.26139,-0.000732)"><title>Sheet.16</title><rect width="7.046" height=".65" x="0" y="15.028" class="st1"/></g><g id="shape17-32" transform="translate(8.59039,-9.33024)"><title>Sheet.17</title><path d="M0.31 15.53 C0.31 15.61 0.24 15.68 0.15 15.68 C0.07 15.68 0 15.61 0 15.53 C0 15.44 0.07 15.37 0.15 15.37 C0.24 15.37 0.31 15.44 0.31 15.53 Z" class="st4"/></g><g id="shape18-34" transform="translate(6.94715,-6.18973)"><title>Sheet.18</title><path d="M1.96 15.68 C1.95 15.68 1.94 15.68 1.93 15.67 L0.03 14.58 C0.01 14.57 0 14.55 0 14.53 C0 14.51 0.01 14.49 0.03 14.48 L1.91 13.39 C1.93 13.38 1.95 13.38 1.97 13.39 L3.87 14.49 C3.89 14.5 3.9 14.51 3.9 14.53 C3.9 14.56 3.89 14.57 3.87 14.58 L1.98 15.67 C1.97 15.68 1.97 15.68 1.96 15.68 Z" class="st5"/></g><g id="shape19-36" transform="translate(6.67899,-3.53083)"><title>Sheet.19</title><path d="M1.95 15.68 C1.94 15.68 1.93 15.68 1.92 15.67 L0.03 14.58 C0.01 14.57 0 14.55 0 14.53 L0 12.34 C0 12.32 0.01 12.3 0.03 12.29 C0.05 12.28 0.07 12.28 0.09 12.29 L1.98 13.38 C2 13.39 2.01 13.41 2.01 13.43 L2.01 15.62 C2.01 15.64 2 15.66 1.98 15.67 C1.97 15.68 1.96 15.68 1.95 15.68 Z" class="st7"/></g><g id="shape20-38" transform="translate(9.10772,-3.53083)"><title>Sheet.20</title><path d="M0.06 15.68 C0.05 15.68 0.04 15.68 0.03 15.67 C0.01 15.66 0 15.64 0 15.62 L0 13.45 C0 13.43 0.01 13.41 0.03 13.4 L1.92 12.31 C1.94 12.3 1.96 12.3 1.98 12.31 C1.99 12.32 2.01 12.34 2.01 12.36 L2.01 14.53 C2.01 14.55 1.99 14.57 1.98 14.58 L0.09 15.67 C0.08 15.68 0.07 15.68 0.06 15.68 Z" class="st8"/></g></g></g></svg>