<svg xmlns="http://www.w3.org/2000/svg" xmlns:ev="http://www.w3.org/2001/xml-events" xmlns:xlink="http://www.w3.org/1999/xlink" width="82.26" height="82.26" class="st3" color-interpolation-filters="sRGB" viewBox="0 0 61.695 61.695" xml:space="preserve"><style type="text/css">.st1,.st2{fill:#fff;stroke:none;stroke-width:.999998}.st2{fill:#595959}.st3{fill:none;fill-rule:evenodd;font-size:12px;overflow:visible;stroke-linecap:square;stroke-miterlimit:3}</style><g><title>Page-1</title><g id="group59-1" transform="translate(23.0625,-22.5)"><title>Sheet.59</title><g id="shape60-2"><title>Sheet.60</title><path d="M7.87 61.69 L7.75 61.65 C7.44 61.54 0 58.86 0 48.86 C0 48.31 0.15 47.6 0.67 47.28 C0.9 47.13 1.26 47.01 1.78 47.25 C4.4 48.39 5.32 47.4 6.22 46.46 C6.69 45.94 7.17 45.47 7.83 45.39 L7.87 45.39 L7.92 45.39 C8.58 45.47 9.06 45.94 9.53 46.46 C10.43 47.4 11.37 48.39 13.97 47.25 C14.49 47.01 14.85 47.13 15.08 47.28 C15.6 47.6 15.75 48.31 15.75 48.86 C15.75 58.9 8.31 61.57 7.99 61.65 L7.87 61.69 Z" class="st1"/></g><g id="shape61-4" transform="translate(0.393701,-0.393701)"><title>Sheet.61</title><path d="M13.74 47.99 C9.44 49.88 9.06 46.33 7.49 46.18 C5.86 46.33 5.51 49.88 1.22 47.99 C0.36 47.6 0 48.54 0 49.25 C0 58.63 6.57 61.38 7.49 61.69 C8.39 61.38 14.96 58.63 14.96 49.25 C14.96 48.54 14.64 47.6 13.74 47.99 ZM11.03 55.9 L9.96 56.97 L7.49 54.49 L5 56.97 L3.93 55.9 L6.42 53.43 L3.93 50.94 L5 49.88 L7.49 52.36 L9.96 49.88 L11.03 50.94 L8.54 53.43 L11.03 55.9 Z" class="st2"/></g></g></g></svg>