<svg xmlns="http://www.w3.org/2000/svg" xmlns:ev="http://www.w3.org/2001/xml-events" xmlns:xlink="http://www.w3.org/1999/xlink" width="32.92" height="26.324" class="st2" color-interpolation-filters="sRGB" viewBox="0 0 24.69 19.743" xml:space="preserve"><style type="text/css">.st1{fill:#07f;stroke:none;stroke-linecap:butt;stroke-width:2.50839}.st2{fill:none;fill-rule:evenodd;font-size:12px;overflow:visible;stroke-linecap:square;stroke-miterlimit:3}</style><g><title>Page-1</title><g id="group26-1" transform="translate(2.50839,-2.50839)"><title>Microsoft Flow</title><g id="shape27-2" transform="translate(-1.93845E-13,-1.98086)"><title>Sheet.27</title><path d="M0.79 15.68 L0.79 9.32 A1.52879 1.52879 0 0 1 2.32 7.79 L17.35 7.79 A1.52848 1.52848 0 0 1 18.88 9.32 L18.88 17.42 A1.52848 1.52848 0 0 1 17.35 18.95 L10.41 18.95 L10.41 19.74 L17.35 19.74 A2.32295 2.32295 -180 0 0 19.67 17.42 L19.67 9.32 A2.32295 2.32295 -180 0 0 17.35 7 L2.32 7 A2.32295 2.32295 -180 0 0 -0 9.32 L0 15.68 L0.79 15.68 Z" class="st1"/></g><g id="shape28-4" transform="translate(0.000623108,0)"><title>Sheet.28</title><path d="M10.43 12.1 a0.692896 0.692896 -180 0 0 0.691649 0.694453 L14.35 12.8 a0.692896 0.692896 -180 0 0 0.691338 -0.694453 L15.04 8.86 a0.692896 0.692896 -180 0 0 -0.691338 -0.694453 L11.13 8.17 a0.692896 0.692896 -180 0 0 -0.691649 0.694453 L10.43 9.91 L9.13 9.91 A1.26335 1.26335 -180 0 0 7.93 10.78 L5.95 16.77 a0.114029 0.114029 0 0 1 -0.107798 0.0791347 L4.61 16.85 L4.61 15.81 a0.692896 0.692896 -180 0 0 -0.691338 -0.694453 L0.69 15.11 a0.692896 0.692896 -180 0 0 -0.691338 0.694453 L0 19.05 a0.692896 0.692896 -180 0 0 0.691338 0.694453 L3.92 19.74 a0.692896 0.692896 -180 0 0 0.691338 -0.694453 L4.61 18.01 L5.84 18.01 A1.26335 1.26335 -180 0 0 7.04 17.14 L9.02 11.14 a0.114029 0.114029 0 0 1 0.107798 -0.0791347 L10.43 11.06 L10.43 12.1 ZM3.46 18.58 L1.15 18.58 L1.15 16.27 L3.46 16.27 L3.46 18.58 Z" class="st1"/></g></g></g></svg>