<svg xmlns="http://www.w3.org/2000/svg" xmlns:ev="http://www.w3.org/2001/xml-events" xmlns:xlink="http://www.w3.org/1999/xlink" width="82.26" height="82.26" class="st5" color-interpolation-filters="sRGB" viewBox="0 0 61.695 61.695" xml:space="preserve"><style type="text/css">.st1{fill:#ffc000}.st1,.st2,.st3,.st4{stroke:none;stroke-linecap:round;stroke-linejoin:round;stroke-width:.749999}.st2{fill:#fff}.st3{fill:#bf9000}.st4{fill:#ffe699}.st5{fill:none;fill-rule:evenodd;font-size:12px;overflow:visible;stroke-linecap:square;stroke-miterlimit:3}</style><g><title>Page-1</title><g id="group12-1" transform="translate(25.1719,-20.95)"><title>Sheet.12</title><g id="group13-2" transform="translate(0,-7.50477)"><title>Sheet.13</title><g id="shape13-3"><path d="M5.19 49.69 C5.83 49.05 6.85 49.06 7.49 49.69 L12.03 54.26 C12.66 54.88 12.66 55.91 12.02 56.54 L7.45 61.07 C6.82 61.69 5.8 61.69 5.17 61.07 L0.63 56.5 C0 55.87 0 54.85 0.63 54.22 L5.19 49.69 Z" class="st1"/></g></g><g id="group14-5" transform="translate(4.19862,-9.23706E-14)"><title>Sheet.14</title><g id="shape14-6"><path d="M3.78 47.48 L3.78 59.82 L1.89 61.69 L0 59.82 L0 47.48 L3.78 47.48 Z" class="st1"/></g></g><g id="group15-8" transform="translate(4.89117,-15.9113)"><title>Sheet.15</title><g id="shape15-9"><path d="M0 60.31 C0 59.56 0.63 58.93 1.38 58.93 C2.15 58.93 2.77 59.56 2.77 60.31 C2.77 61.08 2.15 61.69 1.38 61.69 C0.63 61.69 0 61.08 0 60.31 Z" class="st2"/></g></g><g id="group16-11" transform="translate(4.95412,-2.1922)"><title>Sheet.16</title><g id="shape16-12"><path d="M0 55.84 L0 61.69 L1.13 61.69 L1.13 55.84 L0 55.84 Z" class="st3"/></g></g><g id="group17-14" transform="translate(4.95412,-7.23241)"><title>Sheet.17</title><g id="shape17-15"><path d="M0 60.12 L1.13 60.92 L0 61.69 L0 60.12 Z" class="st3"/></g></g><g id="group18-17" transform="translate(4.95228,-0.914869)"><title>Sheet.18</title><g id="shape18-18"><path d="M1.13 60.41 L1.13 61.69 L0 60.41 L1.13 60.41 Z" class="st3"/></g></g><g id="group19-20" transform="translate(7.66136,-1.57227)"><title>Sheet.19</title><g id="shape19-21"><path d="M0 59.56 L1.38 60.35 L0 61.69 L0 59.56 Z" class="st1"/></g></g><g id="group20-23" transform="translate(7.66136,-3.20741)"><title>Sheet.20</title><g id="shape20-24"><path d="M0 59.56 L1.38 60.63 L0 61.69 L0 59.56 Z" class="st1"/></g></g><g id="group21-26" transform="translate(7.66136,-4.77967)"><title>Sheet.21</title><g id="shape21-27"><path d="M0 59.56 L1.38 60.63 L0 61.69 L0 59.56 Z" class="st1"/></g></g><g id="group22-29" transform="translate(2.49871,-13.6473)"><title>Sheet.22</title><g id="shape22-30"><path d="M0 60.75 L0 61.69 L7.99 61.69 L7.99 60.75 L0 60.75 Z" class="st4"/></g></g><g id="group23-32" transform="translate(2.49871,-12.2008)"><title>Sheet.23</title><g id="shape23-33"><path d="M0 60.75 L0 61.69 L7.99 61.69 L7.99 60.75 L0 60.75 Z" class="st4"/></g></g></g></g></svg>